<?xml version="1.0" encoding="utf-8"?>
<svg version="1.1" id="Layer_1" xmlns="http://www.w3.org/2000/svg" xmlns:xlink="http://www.w3.org/1999/xlink" x="0px" y="0px"
	 viewBox="0 0 1189.9 1693.6" style="enable-background:new 0 0 1189.9 1693.6;" xml:space="preserve">
<style type="text/css">
	.st0{fill:#F1A49A;stroke:#F1A49A;}
	.st1{fill:#D06156;stroke:#D06156;}
	.st2{fill:#E48E81;stroke:#E48E81;}
	.st3{fill:#FFD2CB;stroke:#FFD2CB;}
	.st4{fill:#FDC2B9;stroke:#FDC2B9;}
	.st5{fill:#BF554B;stroke:#BF554B;}
	.st6{fill:#DBD4AA;stroke:#DBD4AA;}
	.st7{fill:#BDB682;stroke:#BDB682;}
	.st8{fill:#87675C;stroke:#87675C;}
	.st9{fill:#F1DDB8;stroke:#F1DDB8;}
	.st10{fill:#9F9861;stroke:#9F9861;}
	.st11{fill:#CFC798;stroke:#CFC798;}
	.st12{fill:#AFA871;stroke:#AFA871;}
</style>
<g>
	<path class="st0" d="M632.4,50c2.6-3,7-3.7,10.8-2.9c7.2,1.4,12.9,6.5,19.7,8.7c7.1,2.4,14.8,2.6,22.2,1.9
		c10.5-0.8,20.9-3.1,31.5-3.1c11.6-0.3,23.4,1.6,33.9,6.7c10.4,5,19.4,12.8,26.1,22.1c4.5,6.4,8.3,13.4,10.2,21
		c-4.9-2.1-9.8-4.3-15.1-5.2c-10.8-2.4-22-1-32.5,1.9c-6.7,1.8-13.4,3.7-19.5,6.9c-6.7,3.5-12.1,9.1-16.5,15.2c-1-0.3-2-0.7-3-0.9
		c0.8-7.7-0.5-15.6-4.2-22.4c-4.7-8.1-13.2-13.2-22-15.9c-9.4-3-19.4-2.7-29-1.4c-10,1.4-19.9,2.9-29.9,4.3c-1-3.8-0.7-8.1,1.3-11.5
		c2.7-4.8,7.6-7.9,10.5-12.6C629.3,58.8,629.3,53.7,632.4,50z"/>
	<path class="st1" d="M517.8,78.7c10.2-1.8,20.7,0.4,30,4.6c11.4,5.1,21.3,12.9,30.2,21.5c-8,5.6-15.3,12.2-21.2,19.9
		c-6.8,8.8-11.9,18.9-15.6,29.3c-6.8-3.1-13.3-7.8-17-14.4c-1.2-1.9-2.7-3.9-4.9-4.6c-2.8-1-5.9,0-8.3,1.7c-4,2.9-6.6,7.5-7.2,12.4
		c-1,6.9,1.2,13.9-0.1,20.8c-1.4,8.8-6.1,16.6-10.5,24.2c-3.6,6.1-7.3,12.6-7.9,19.8c-0.1,0.3-0.3,0.9-0.4,1.2
		c-9.1,2.1-18,5.2-25.8,10.4c-8.6,5.7-15.3,13.9-20,23.1c-9.4,18.1-11,38.9-11.9,58.9c-0.5,12.3,0.4,24.9,5.3,36.3
		c3.5,8.3,8.7,15.8,15.3,21.9c6.7,6.1,14.4,11.5,19.1,19.4c4.8,8,4.9,18.1,10.3,25.8c2.1,3.2,5.9,5.7,9.9,4.8
		c3.9-0.9,6.2-4.5,8.4-7.5c3.4-4.8,8.6-8,13.4-11.3c7.3-5.1,14.7-10.3,23.3-12.9c3.1,7.2,7.1,14.1,11.5,20.5
		c2.8,4.2,6.2,7.9,9.3,11.9c-5.8-2.1-12.2-1.3-18,0.6c-7.5,0.6-14.6,3.3-21.5,6.3c-7.7,3.4-15.6,7.1-24.2,7.6
		c-5.1,0.3-10.2-0.7-14.6-3.4c-3.1-1.8-5.8-4.3-8.3-6.9c-0.6-0.6-1.2-1.3-1.8-2c-5.3-6-9.8-12.9-16.4-17.5c-1.2-0.8-2.4-1.5-3.7-2.2
		c-2.4-1.2-5.1-1.9-7.7-2.4c-1.6-0.3-3.2-0.4-4.7-0.6c-7.3-0.6-15-0.2-21.8-3.4c-4-1.8-7.3-5.1-9.5-8.8c-1.7-2.7-2.5-5.8-3.8-8.7
		c-0.5-2.7-0.8-5.4-1.2-8c0.1-14.3-0.8-28.7-0.1-43c0.6-9.2,3.7-18,4.2-27.2c0.4-7-2-13.8-5.4-19.8c-5.2-9.2-12.6-17-17.1-26.6
		c-6.4-13.5-7.8-29-6.2-43.7c2.3-20.3,9.8-40.4,23.1-56.1c10.2-12.1,23.7-20.6,35.2-31.4c2.1-2,4.2-4.3,4.9-7.2
		c1.2-5.3-2.3-10.5-0.9-15.8c1.2-4.7,5.5-7.9,10-8.9c6.3-1.4,12.8,0.3,18.7,2.5c5.6,2.1,11.5,4.1,17.6,3.1
		C493.5,91.6,504.2,81.2,517.8,78.7z"/>
	<path class="st2" d="M644.9,82.5c9.6-1.3,19.7-1.6,29,1.4c8.8,2.7,17.3,7.8,22,15.9c3.7,6.8,5,14.8,4.2,22.4
		c-5.3-1.4-10.8-1.8-16.3-1.8c-6.9,0-14,0.8-20.2,3.9c-6.8,3.3-11.4,9.6-18.2,12.9c-3.6,1.8-7.6,2.2-11.5,2.8
		c-7.7,1.2-15.3,3.9-21.5,8.8c-4.1,3.1-7.3,7.1-10,11.4c-4.3-1.8-9-2.8-13.6-2.3c-7,0.7-13.8,4.6-17.5,10.7
		c-3.1,4.9-3.5,11.2-1.6,16.6c1.7,4.7,5.4,8.5,6.7,13.3c1.7,6.4-1.3,13,0.7,19.4c1.1,3.6,4,6.3,7.1,8.3c-3.1,10-3.3,20.8-1.2,31.1
		c-9.3-1.4-19.4-1.2-27.7,3.7c-7,3.3-13.4,8.4-17.3,15.2c-2.6-11.1-5.1-22.5-3.6-34c1.2-9.8,6.1-18.8,6.9-28.7
		c0.8-10.8-4.4-20.9-4.3-31.6c0-9.4,2.2-18.7,4-27.9c3.7-10.5,8.8-20.5,15.6-29.3c5.9-7.7,13.2-14.3,21.2-19.9
		c11.4-7.8,24-13.7,37.1-18C625,85.4,634.9,83.9,644.9,82.5z"/>
	<path class="st1" d="M827.3,95.1c4.6-1.5,8.9-4.3,13.9-4c3.4,0.1,6.5,2.4,8,5.4c2.8,5.3,1.9,11.6,3.9,17.2
		c2.7,7.5,10.4,11.1,15.3,17c7,8.3,10.2,18.9,13.3,29.1c3.3,10.9,6.4,22.4,4.8,33.9c-0.6,5.3-2.6,10.4-5.2,15.1c-1.5,3.9-2,8-3.1,12
		c-2.4,9.4-6,18.6-10.6,27.1c-4,7.3-9.2,14-15.5,19.5c-7.3,6.4-15.5,11.8-23.5,17.3c-9.3,6.2-18.9,12-29.4,15.9
		c-8.2,3.1-16.8,4.8-25.5,5.9c1.3-4,3.5-7.6,5-11.6c3.1-7.3,6-15,5.8-23c-0.2-9.2-3.9-17.9-5.3-27c-1.1-7.2-1.4-14.6-0.5-21.8
		c0.7-5.6,3.3-11.1,8.2-14.1c4.5-2.8,7.4-7.7,8.3-12.8c0.6-3.7,1.4-7.9-0.5-11.4c-0.9-1.8-2.8-2.4-4.6-2.8
		c-9.1-2.4-17.3-8-23.1-15.4c-6.8-8.1-10.8-18.1-17.2-26.4c-5.3-6.9-12.9-12.5-21.7-13.7c-5-0.7-10.1,0.3-14.7,2.5
		c-3-2.6-6.4-4.6-10.2-5.9c4.4-6.1,9.8-11.6,16.5-15.2c6.1-3.2,12.9-5.1,19.5-6.9c10.5-2.8,21.7-4.3,32.5-1.9
		c5.3,1,10.2,3.1,15.1,5.2c0.9,0.3,1.8-0.1,2.8-0.1C802.3,102.2,815.1,99.4,827.3,95.1z"/>
	<path class="st3" d="M663.7,124.3c6.3-3.1,13.3-3.9,20.2-3.9c5.5,0.1,11,0.4,16.3,1.8c1,0.3,2,0.6,3,0.9c3.7,1.3,7.2,3.3,10.2,5.9
		c4.9,4.3,8.5,9.7,12.8,14.5c2.5,3,5.3,5.8,8.1,8.6c3.9,3.7,7.3,8,11.3,11.7c6.6,7.1,13.3,14.7,15.8,24.3c1.5,6.5,1.2,13.5-1.4,19.7
		c-0.4,1.1-0.8,2.3-1.2,3.5c-2.6,3.1-4.8,6.5-8.1,8.9c-5.2,3.9-11.3,6.1-17.2,8.7c0-0.3,0-0.9,0-1.1c0.7-3.4,0.9-7-0.1-10.4
		c-1.4-5.2-5.2-9.9-10.4-11.6c3.8-9.5,4-20.7-0.9-29.9c-2.8-5.5-7.6-10.1-13.3-12.5c-9.3-4-20.6-3-29,2.7
		c-6.4,4.4-10.3,11.4-13.1,18.5c-1.4,3.3-2.2,6.8-3.5,10.1c-1-4.4-2.3-9-5.3-12.5c-3.3-3.9-8.4-5.9-13.4-6.3
		c-6.4-0.7-12.7,1.6-19.1,0.4c-3.5-0.7-6.5-3.3-10.2-3.4c-3.5,0.1-6.2,2.9-7.7,5.8c-2.1,4.2-3.2,8.8-4.6,13.3
		c-1.3,4.4-3,8.8-4.1,13.3c-4.9-7.3-6.4-16.6-4.8-25.2c1.1-7.2,4.4-13.9,8.5-19.8c2.6-4.4,5.9-8.3,10-11.4
		c6.2-4.9,13.8-7.5,21.5-8.8c3.9-0.6,7.9-1.1,11.5-2.8C652.2,133.9,656.9,127.6,663.7,124.3z"/>
	<path class="st4" d="M713.3,129.1c4.5-2.2,9.6-3.2,14.7-2.5c8.8,1.2,16.4,6.7,21.7,13.7c6.4,8.4,10.5,18.3,17.2,26.4
		c5.8,7.4,14,13,23.1,15.4c-6.3,7.1-15.8,10.1-22.3,17.1c-3.5,3.7-5.5,8.6-9.1,12.3c0.4-1.2,0.7-2.3,1.2-3.5
		c2.6-6.2,2.9-13.2,1.4-19.7c-2.5-9.6-9.2-17.2-15.8-24.3c-3.9-3.8-7.3-8-11.3-11.7c-2.8-2.8-5.6-5.5-8.1-8.6
		C721.9,138.8,718.2,133.4,713.3,129.1z"/>
	<path class="st3" d="M510.9,136.8c2.3-1.7,5.4-2.7,8.3-1.7c2.3,0.7,3.8,2.7,4.9,4.6c3.8,6.6,10.2,11.3,17,14.4
		c-1.8,9.2-4,18.4-4,27.9c-0.1,10.7,5.1,20.8,4.3,31.6c-0.8,9.9-5.8,18.9-6.9,28.7c-1.5,11.4,1,22.9,3.6,34
		c4.4,18.2,9.3,36.3,15.9,53.8c4.5,11.7,9.8,23.2,16,34.1c-6-0.1-11.9,2.4-15.9,6.8c-3.5-2.2-6.9-4.6-9.5-7.8
		c-4.9-6-8.3-13.1-11.2-20.3c-3.7-9.6-6.1-19.8-7.6-30c-2.2-14.3-2.7-28.8-4.9-43.1c-1.3-8.3-2.9-16.6-6.8-24.1
		c-2.7-5.4-6.8-10.2-12-13.2c-5-3-10.9-5.3-14.4-10.2c-1.8-2.3-2.5-5.2-2.5-8.1c0.6-7.2,4.3-13.7,7.9-19.8
		c4.4-7.6,9.1-15.4,10.5-24.2c1.2-6.9-0.9-13.9,0.1-20.8C504.3,144.3,506.9,139.7,510.9,136.8z"/>
	<path class="st4" d="M588.8,158c4.7-0.5,9.3,0.4,13.6,2.3c-4.2,5.9-7.4,12.6-8.5,19.8c-1.6,8.6-0.1,17.9,4.8,25.2
		c3.2,9.9,9,19,16.5,26.2c5.9,5.4,11.9,10.7,17.9,16.1c5.1,4.7,10.5,9.1,15.4,14c-6-0.1-11.9,0.8-17.8,1.6
		c-5.6-5.1-11.1-10.4-15.9-16.3c-2.4-2.9-5.1-5.7-8.5-7.6c-3.9-2.3-8.1-4-11.7-6.6c-3.3-2.3-6.9-4.3-10.3-6.5c-3.1-2-6-4.7-7.1-8.3
		c-2-6.3,1-13-0.7-19.4c-1.3-4.9-5-8.6-6.7-13.3c-1.9-5.4-1.5-11.7,1.6-16.6C575.1,162.6,581.8,158.7,588.8,158z"/>
	<path class="st2" d="M679.6,166.1c8.4-5.7,19.7-6.6,29-2.7c5.8,2.4,10.5,7,13.3,12.5c4.8,9.2,4.7,20.4,0.9,29.9
		c-3.5,6.5-7.4,12.8-10.6,19.5c-2.2-0.5-4.3-1-6.5-1.6c2.7-5.7,4.2-12.1,3-18.4c-1.1-5.6-5-10.5-10.1-13.1
		c-5.8-2.9-12.5-3.6-18.9-2.9c-6.3,0.7-12.5,3.6-16.7,8.5c-0.4,0.5-0.8,1.1-0.9,1.8c-0.6,6.3,1.7,12.7,6,17.3
		c-2.6,5.7-5.9,11.2-10.5,15.7c-1.8-5.6-6.3-10.4-11.9-12.2c-5.7-1.9-11.9-1.5-17.4-3.8c-4.3-1.8-7.6-5.4-9.5-9.5
		c-1.5-3.3-2-6.9-3.6-10.1c-1.4-2.6-3.9-4.6-6.8-5.2c-1.9-0.4-3.8,0-5.7,0.2c1.3-4.5,2.5-9.1,4.6-13.3c1.5-2.9,4.2-5.7,7.7-5.8
		c3.7,0,6.6,2.7,10.2,3.4c6.4,1.2,12.7-1.1,19.1-0.4c5,0.4,10.1,2.4,13.4,6.3c3,3.5,4.3,8.1,5.3,12.5c1.3-3.3,2.1-6.8,3.5-10.1
		C669.3,177.5,673.3,170.5,679.6,166.1z"/>
	<path class="st2" d="M790,182c1.8,0.4,3.7,1.1,4.6,2.8c1.9,3.5,1.1,7.7,0.5,11.4c-0.9,5.2-3.7,10-8.3,12.8c-4.9,3-7.5,8.6-8.2,14.1
		c-0.9,7.2-0.6,14.6,0.5,21.8c1.3,9.1,5,17.7,5.3,27c0.2,8-2.7,15.7-5.8,23c-1.5,3.9-3.7,7.6-5,11.6c-2,0.3-4.3,0.6-5.9-0.8
		c-9.9-7.9-21.4-14-33.6-17.5c-12.5-3.7-25.7-4.2-38.3-7.6c-7-1.8-13.8-4.5-20-8.1c2.8-8.2,7.5-15.8,14.3-21.2
		c7.7-6.3,16.9-10.3,25.9-14.3c4.1-1.9,8.4-3.3,12.4-5.2c1.8-1,3.6-2.2,4.8-4c0,0.3,0,0.9,0,1.1c5.8-2.6,12-4.8,17.2-8.7
		c3.3-2.4,5.6-5.8,8.1-8.9c3.6-3.7,5.5-8.6,9.1-12.3C774.1,192.2,783.7,189.1,790,182z"/>
	<path class="st5" d="M663.2,197.9c4.1-4.9,10.3-7.8,16.7-8.5c6.4-0.7,13.1,0,18.9,2.9c5.1,2.6,9,7.4,10.1,13.1
		c1.2,6.3-0.3,12.7-3,18.4c-3.5-0.9-6.9-1.9-10.3-2.9c0-0.4-0.1-1.3-0.1-1.7c0.5-3.8,1.8-7.5,1.5-11.4c-0.3-3.1-2.8-5.3-5.6-6.2
		c-4.6-1.7-10.6-0.8-13.6,3.3c-2.5,3.2-2.5,7.6-1.1,11.3c-2.7,0.3-5.5,0.6-8.3,0.9c-4.3-4.6-6.5-11-6-17.3
		C662.3,199,662.7,198.4,663.2,197.9z"/>
	<path class="st6" d="M135,192.8c0.7-1.9,2.9-2.4,4.7-2c7.4,1.6,15,2.4,22.4,4.2c20.4,4.8,39.4,13.8,58.6,22
		c22.9,9.9,45.2,22,64.1,38.6c15.1,13.2,28,29.4,35.7,48c5.5,13.4,8,27.7,10,42c0.8,6.6,2.3,13.2,1.5,19.9c-1.1-2.2-1.2-4.8-1.8-7.1
		c-2.1-8.5-5.6-16.7-10.5-24c-3.1-4.7-7.2-8.7-10.4-13.3c-0.9-1.9-1.8-3.8-2.8-5.7c-0.5-4.3-1.1-9.1-4.3-12.3
		c-2.2-2.3-5.7-1.7-8.3-3.1c-1.7-1.3-1.7-3.9-3.3-5.4c-1.1-1-2.5-1.7-3.8-2.5c-0.2,1.4-0.3,2.7-0.4,4.1c0.1-2.1-0.2-4.2-1.1-6
		c-1.6-2.9,0.1-6.7-2.4-9.2c-0.4,4.3,0.4,8.7-0.5,12.9c0.1-4.5,0.2-9-0.3-13.5c-1.8,0.4-3.2,1.6-5,1.9c-2.3-0.1-2.6-2.8-3.1-4.5
		c-0.4-2-2.3-3.6-4.3-3.7c-1.8,0.1-3.4,1.1-5.2,1.2c-1.9,0-3.2-1.7-4.2-3.1c-2.1-3.2-3.6-6.7-5.5-10c-0.8-1.6-2-2.9-3.1-4.3
		c-1.6-2.4-3.8-4.7-6.7-5.5c-2-0.4-2.8,1.8-4,3c-1.9,2.4-5.7,1.7-7.6-0.5c-3.6-4-4.8-10.1-9.7-13c0,0.3,0,1,0,1.4
		c-0.4-0.6-0.7-1.3-1.1-1.9c-0.8,0.2-1.6,0.4-2.3,0.6c-1.2,1.2-1.7,4.1-3.9,3.4c-2.7-1-4.4-3.6-6.3-5.7c-3-3.6-7.3-5.7-10.7-8.9
		c-1.1-1.1-2.2-2.1-3.3-3.2c-0.8-1.2-1.7-2.5-3-3.2c-2-3.1-5.5-5.1-9.2-5.6c-3.2-0.5-6,2.2-9.1,1.2c-3.9-1.5-5-6.2-8.6-8.1
		c-1.2-0.6-2.6-0.9-3.9-0.3c-1.6,0.9-2.8,2.4-4.5,3.1c-1.5,0.5-2.8-0.6-3.9-1.4c-2.1-1.7-4.2-3.2-6.3-4.9c-3.1-2.6-5.6-5.8-8.5-8.6
		C137,198,135,195.7,135,192.8z"/>
	<path class="st1" d="M602.8,192.1c1.9-0.2,3.8-0.6,5.7-0.2c2.9,0.6,5.4,2.6,6.8,5.2c1.7,3.2,2.1,6.8,3.6,10.1
		c1.9,4.2,5.2,7.8,9.5,9.5c5.6,2.3,11.8,1.9,17.4,3.8c5.6,1.9,10.1,6.6,11.9,12.2c-4.8,4.7-11.7,5.9-17.4,8.9
		c-2.8,1.5-5.1,3.7-7.2,6c-5.9-5.4-12-10.6-17.9-16.1c-7.5-7.2-13.3-16.3-16.5-26.2C599.8,200.9,601.5,196.5,602.8,192.1z"/>
	<path class="st4" d="M677.6,204.8c3-4.1,9-5,13.6-3.3c2.8,0.9,5.3,3.2,5.6,6.2c0.3,3.9-1,7.6-1.5,11.4c-0.2,0.3-0.5,0.9-0.6,1.2
		c-5.9-2.1-11.9-4-18.2-4.3C675.1,212.5,675.1,208,677.6,204.8z"/>
	<path class="st1" d="M722.9,205.8c5.2,1.7,9.1,6.4,10.4,11.6c1,3.4,0.7,7,0.1,10.4c-1.2,1.8-3,3-4.8,4c-4.5-4-10.5-5.5-16.3-6.5
		C715.4,218.6,719.4,212.4,722.9,205.8z"/>
	<path class="st2" d="M881.2,208.8c13.5-3.4,27.7-4,41.4-1.7c10.3,1.8,20.6,5.8,28.2,13.3c6.9,6.8,10.9,15.8,15.1,24.4
		c4.6,9.6,10,19.1,17.2,27.1c6.1,6.9,13.5,12.7,18.7,20.4c2.8,4.2,4.8,9.1,4.4,14.2c-0.3,4.4-2.6,8.8-6.6,10.9
		c-4.6,2.4-10.3,0.9-14.8,3.6c-2.7,1.6-4,4.9-3.6,7.9c0.3,2.5,1.2,4.9,2,7.3c4.5,12.2,10.5,23.8,13.9,36.3c2,7.5,3,15.4,1.1,23
		c-1.1,4.6-3.3,9.3-7,12.4c-3.1,2.6-7.4,4-11.3,2.9c-4.8-1.2-8.6-4.7-13.1-6.7c-3.2-1.5-6.9-2-10.4-1.6c-9.1,1-17.1,6.4-26.4,6.4
		c-12.4,0.1-23.5-6.3-35.5-8c-8.5-1.4-17.9-0.5-25,4.7c-3.1,2.2-5.5,5-7.9,7.9c-2.8,3.5-5.3,7.1-8.4,10.2
		c-7.9,8.1-18.7,13.1-29.9,14.4c-3.9,0.5-7.8,0.2-11.6,0.1c-5-0.9-10-1.7-14.9-2.9c-12.3-2.8-25-4.4-36.4-10.2l0-0.4
		c0.2-1.5,0-3.3,1.3-4.3c7.9-7.3,17.8-11.9,26.1-18.7c7.2-5.8,13.2-13.1,17.9-21c10.5-17.9,14.4-38.6,20.7-58.1
		c0.1-0.8,0.9-1.1,1.5-1.4c6.8,1.1,13.8,2.2,20,5.6c4.5,2.4,8.6,6.1,13.9,6.6c3.9,0.5,8-1.5,9.9-4.9c2.3-4.1,1.9-8.9,2.8-13.3
		c1.6-8.1,5.8-15.4,10.2-22.4c5.7-8.9,12-17.4,16.9-26.8c2.7-5.4,4.7-11.5,3.5-17.6c-1-5.1-4.3-9.2-7.5-13.2
		c-3.4-4.2-6.6-8.8-11.3-11.6c-2.5-1.5-5.3-2.3-8.2-2.6C879.2,216.8,879.7,212.7,881.2,208.8z"/>
	<path class="st7" d="M147.4,208.5c2.1,1.6,4.3,3.2,6.3,4.9c1.1,0.8,2.4,1.9,3.9,1.4c1.7-0.7,2.9-2.3,4.5-3.1
		c1.2-0.6,2.7-0.4,3.9,0.3c3.6,1.9,4.7,6.6,8.6,8.1c3.1,1.1,6-1.7,9.1-1.2c3.6,0.5,7.1,2.6,9.2,5.6c0.8,3.7,1.7,7.5,2,11.3
		c0.3,4-0.2,8-1.3,11.8c-9.2-10.3-18.1-20.8-26.2-32c-0.8-1-1.5-2.1-2.4-2.9c-1.4-0.6-2.2,1.2-1.4,2.2c7.1,10.1,14,20.3,21.7,30
		c-2.6,0.1-5.3,0-7.9-0.8c-5.2-1.5-9.6-5-14.7-6.7c-0.8,1.5,0.9,2.1,1.9,2.7c5.5,3.1,10.7,6.8,16.8,8.4c2.4,0.6,4.9,1.3,7.4,0.9
		c6,7.6,12.2,15.1,18.2,22.7c-7.6,0.1-15.1-1.2-22.4-3.4c-8.9-2.7-17-7.3-25.2-11.5c-1.8-0.9-3.5-2.1-5.6-2c0.3,0.8,0.7,1.7,1.5,2
		c7.9,4.4,15.3,9.5,23.5,13.3c8,3.8,16.7,6,25.6,6.7c2.3,0.1,4.6,1,6.8,0.1c6.3,8.2,12.4,16.4,18,25.2c-13.2,2.8-27.1,2-40-2.2
		c-12.5-4.1-23.6-11.4-35-17.7c-1.8-1-3.5-2.1-5.4-2.8c-1-0.1-1,0.9-1.2,1.6c10,6.2,19.7,12.9,30.2,18.2
		c16.8,8.8,36.4,12.3,55.1,8.9c4.6,7.7,8.9,15.7,12.9,23.8c-11.1,4.6-23.1,6.6-35.1,5.8c-20.8-1.3-40.4-9.8-58.2-20.1
		c-0.9-0.6-2-0.8-3-0.9c0,0.4,0,1.2-0.1,1.6c15.9,10.8,33.6,19.5,52.7,23c15.5,2.9,31.8,2,46.7-3.5c4.1,8.4,8.1,16.8,12,25.3
		c-11.5,5.2-24.4,7.4-36.9,6.2c-11-0.9-21.8-3.9-32.3-7.1c-8.9-2.7-17.8-5.8-25.9-10.3c-0.9-0.6-2-0.8-3-0.9
		c-0.1,0.4-0.3,1.3-0.4,1.7c7.6,5.4,16.3,8.9,25,12c11.9,4,23.9,7.9,36.3,9.6c13.5,1.8,27.5,0.1,40.2-4.9c2.8,6.1,5.7,12.2,8.5,18.3
		c-20,9.2-43,11-64.5,6.6c-5.4-1-10.6-3-15.8-4.7c-0.3,0.3-0.9,0.9-1.1,1.2c0.5,0.9,1.3,1.6,2.3,2c18,8.1,38.3,10.5,57.8,7.6
		c6.3-1,12.5-2.6,18.5-4.9c1.8-0.7,3.8-1.3,5.3-2.7c5.5,11.9,11.2,23.8,17,35.6c-7.8,2.7-16.7,4-24.7,1.2c-2.3-0.7-4.3-2-6.4-3.2
		c-7-1.8-14.2,0.7-21.2-0.1c-4-0.3-8-0.6-12-0.8c-2.6-0.2-5.4-0.4-7.7-1.8c-1.5-1.2-0.4-3.3-0.2-4.8c0.5-2.4-1.7-4.3-3.9-4.7
		c-3.5-0.7-7.1-0.7-10.6-1.3c-2.5-0.4-5.3,1.5-7.6-0.2c-1.5-1.3-0.2-3.2,0.3-4.7c0.6-1.3-0.3-2.6-1.3-3.4c-3.2-2.4-6.9-4.3-10.9-4.6
		c-2.1-0.2-4.8-0.7-5.7-3c-1.4-2.6,3.5-5.2,0.5-7.4c-4.9-2.8-10.2-5-15.2-7.8c-0.8-0.4-1.4-1.1-1.2-2c0.6-1.2,2.1-1.5,3-2.5
		c0.9-1.9-1.1-3.5-2.3-4.7c-4-3.3-8.9-5.3-13.4-7.9c-0.6-0.4-1.1-0.9-1.4-1.6c-0.7-2.4,3.4-3.2,2.3-5.6c-1.5-3.1-2.7-6.6-5.6-8.8
		c-2.7-2.3-7.1-2.3-8.8-5.8c-0.8-1.8,1.2-2.9,1.6-4.6c-2-5.4-5.4-10.3-9.7-14.1c-1-0.9-2-2.2-1.5-3.7c1-2,3.9-1.9,4.8-3.9
		c0.9-2,0-4.3-1.2-6c-2.7-3.7-6-7.3-7.1-11.9c-0.4-2.6,2.7-3.2,3.7-5.1c1.5-2.8,0.6-6.1-0.3-9c-1-2.8-3.7-5.1-3.1-8.3
		c0.4-2.2,2.8-2.7,4.5-3.3c1.7-0.5,3.3-1.8,3.5-3.6c0.2-2.3-0.2-4.7-0.5-7c-0.3-2.3-1.8-4.4-1.2-6.8c0.4-1.4,1.8-2.3,2.7-3.4
		c3.2-3.4,4.6-8.4,3.5-12.9c-0.5-2.1-1.2-4.5,0.2-6.4c1-1.6,3.4-1,4.5-2.4c1.3-1.5,1.8-3.5,2.3-5.4c0.6-1.9-0.5-3.8-0.4-5.7
		c0.5-2,2.2-3.6,2.5-5.7C147.1,212.6,147,210.5,147.4,208.5z"/>
	<path class="st8" d="M163.7,214.9c-0.9-1,0-2.8,1.4-2.2c0.9,0.9,1.7,1.9,2.4,2.9c8.1,11.1,17,21.7,26.2,32c1.4,1.6,2.8,3.1,4.2,4.7
		c7.1,8,14.3,15.9,21.1,24.2c1.3,1.6,2.6,3.2,3.9,4.8c6.5,8.3,12.5,17.1,18,26.1c1.1,1.9,2.3,3.8,3.4,5.7
		c6.1,10.4,11.7,21,17.2,31.7c1,1.9,1.9,3.7,2.9,5.6c4.1,8.1,8.1,16.3,12.2,24.4c0.9,1.8,1.8,3.6,2.7,5.4c7,14.1,14,28.2,21.2,42.1
		c10.5,20.2,21.5,40.2,33.7,59.5c8.6,13.6,17.8,26.8,27.4,39.7c2.2-0.8,4.2-2.2,5.7-4c3.5-4.3,6.7-8.8,9.8-13.3
		c4.1-6,7.9-12.2,11.5-18.6c0.9-1.7,1.9-3.3,2.8-5c4.3-7.7,8.4-15.6,12.4-23.5c0.8-1.6,1.6-3.1,2.4-4.7c4-8,8-16.1,11.8-24.3
		c0.8-1.6,1.6-3.2,2.3-4.9c4.1-8.9,8.2-17.9,11.9-27c1.6,0.1,3.2,0.3,4.7,0.6c-1,2.6-2,5.2-3,7.8c-0.9,2.2-1.8,4.3-2.7,6.5
		c-4.6,11.1-9.3,22.2-14.1,33.2c-0.9,2.1-1.9,4.2-2.8,6.3c-4,8.9-8.2,17.8-12.6,26.6c-1,1.9-2,3.9-3,5.8
		c-4.3,8.3-8.8,16.5-13.4,24.7c-2.5,4.3-4.9,8.6-7.3,12.8c-2.4,4.1-5,8.5-4.6,13.4c0.6,5.6,3.9,10.4,7.3,14.8
		c7.3,9.2,14,18.9,21.3,28c13.9,17.5,28.7,34.3,41.7,52.5c5.8,8.1,11.3,16.5,17.4,24.5c0.3,0,0.8,0,1.1,0.1
		c3.9-8.2,9.9-15.3,16.6-21.3c2-1.8,4-3.6,6.1-5.4c1.4-1.2,2.9-2.5,4.3-3.7c3.9-3.4,7.6-7,11.3-10.5c1.9-1.8,3.8-3.7,5.6-5.6
		c6.9-7,13.6-14.1,20.2-21.4c1.5-1.7,3.1-3.4,4.6-5.2c6.6-7.4,13-14.8,19.6-22.2c1.4-1.6,2.7-3.1,4.1-4.7c2.7-3,5.2-6,8-8.9
		c0.3,2.2,0.6,4.4,0.4,6.6c-3.6,4-7,8.2-10.5,12.3c-1.2,1.5-2.5,2.9-3.7,4.4c-7.7,9.1-15.3,18.3-23,27.5c-1.3,1.5-2.5,3-3.8,4.5
		c-5.7,6.7-11.7,13-17.9,19.2c-1.5,1.4-2.9,2.9-4.4,4.4c-4.6,4.6-9.3,9-13.6,13.8c-3.8,4.2-7.5,8.6-10.5,13.5c-2.5,4.1-4,9-3.4,13.8
		c0.7,5.4,3.3,10.3,5.7,15c20.1,37.7,35.4,77.8,46.5,119c6.6,24.4,11,49.3,14.4,74.3c0.2,1.4,0.3,2.8,0.4,4.3
		c1.1-15.4,1.7-30.8,2.8-46.1c0.8-14.6,2-29.1,2.7-43.6c0.7-14.5,0.4-29.1-1.3-43.6c-0.4-5.6-2.5-11-5.1-16
		c-1.2-2.3-2.8-4.3-3.8-6.6c-1-2.2-0.6-5.2,1.4-6.7c2.2-1.7,5.4-0.9,7.4,0.8c4.5,3.8,8.1,8.5,11.7,13.1c0-7.6,1.7-15,3-22.5
		c3.3-19.2,6.5-38.4,10.1-57.6c2.8-15.1,5.5-30.3,7.5-45.5c0-0.3,0.1-0.9,0.2-1.2c1.2-10.3,2.1-20.7,2.3-31.1c0-1.4,0-2.8,0-4.2
		c0-7.8-0.4-15.6-0.9-23.4c2.5-4.1,7.3-5.8,11.7-7.2c5.1-1.7,10.6-1.6,15.8-0.6c5.6,3.2,10.3,7.7,14.7,12.3c-0.5,2.2-1,4.4-1.6,6.7
		c-0.2,1-0.5,2-0.8,3c-2.2,9.2-4.6,18.4-6.9,27.6c-0.3,1.1-0.6,2.2-0.9,3.3c-2.7,10.9-5.5,21.8-8,32.8
		c-6.8,29.1-12.7,58.5-16.9,88.2c-4,28-5.9,56.1-8.1,84.3c-2.2,30.5-5.7,60.8-8,91.3c-1.9,27.2-3.1,54.4-3.2,81.6
		c11.2-18.6,23.4-36.7,37.1-53.6c21.9-26.8,48.8-49.3,78.7-66.5c4.4-4.4,4.4-11.1,5.4-16.9c0.7-5.2,1.5-10.4,2.2-15.7
		c0.3-2.3,0.7-4.7,1.1-7c1.4-8.4,3-16.7,5.5-24.8c0.6-1.9,1.2-3.7,1.8-5.6c3.3-9.2,7.9-17.8,13.3-25.9c1-1.5,2-3,3.1-4.5
		c4.4-6.4,9.2-12.5,13.9-18.6c1.1-1.5,2.3-2.9,3.5-4.4c4.9-6.5,9.9-13.1,14.3-20c1.1-1.8,2.3-3.6,3.4-5.5c9.4-16,15.8-33.5,21.6-51
		c0.1-1.5,2.7-1.9,2.2-0.1c-2.8,15.2-7.9,30-14.6,43.9c-1,1.9-2,3.9-3,5.8c-4.2,7.8-9,15.2-13.9,22.5c-1.1,1.7-2.3,3.3-3.4,5
		c-5.2,7.6-10.5,15.2-15.4,23.1c-1.1,1.8-2.2,3.6-3.3,5.5c-4.8,8.4-9,17.1-11.8,26.4c-0.5,1.5-0.9,3-1.3,4.5
		c-1.9,6.7-3.2,13.6-4.4,20.5c-0.3,1.9-0.6,3.8-0.9,5.6c-1.2,7.6-2.3,15.2-3,22.8c-0.2,2.3-0.2,4.6-0.4,7c5.7-1.6,11.3-3.2,17-4.8
		c18.5-5.2,37.1-10.2,55.6-15.4c16.9-4.4,33.7-9.1,50.7-13.3c16.5-4.2,33-8.1,49.7-11.5c1.5-0.3,3-0.6,4.5-0.9
		c9.6-1.9,19.2-3.6,28.8-5.3c1.7-0.3,3.4-0.6,5.1-0.9c12.7-2.1,25.4-4.3,38.2-6.1c2.4-0.3,4.8-0.7,7.2-1c12.6-1.6,25.3-2.5,38-2
		c0.4,0,1.1,0.1,1.5,0.1c11.9,0.6,23.7,3,35.5,4.8c2.1,0.3,4.1,0.6,6.2,0.8c14.9,2,30.2,1.7,45.1-1.1c0.9-0.1,1.9-0.4,2.7,0.2
		c1.2,0.9,0.8,3.2-0.8,3.4c-11.1,2.7-22.5,4-33.9,3.8c-0.2,0-0.5,0-0.7,0c-13.1-0.4-25.9-2.8-38.8-4.4c-2-0.3-4-0.6-6-0.8
		c-12.1-1.3-24.3-0.8-36.3,0.6c-1.8,0.2-3.6,0.5-5.4,0.7c-9.6,1.3-19,3.2-28.5,4.9c-2.3,0.5-4.6,0.9-6.9,1.3
		c-10.5,2-20.9,4.1-31.3,6.2c-2.1,0.4-4.1,0.9-6.2,1.3c-6,1.3-11.9,2.6-17.9,3.9c-2,0.5-4.1,0.9-6.1,1.4
		c-13.3,3.1-26.6,6.2-39.7,9.7c-37.1,9.4-73.5,21.1-109.8,33.3c-6.2,2.1-12.3,4.3-18.4,6.8c-2.1,1-5,1.6-5.7,4.1
		c1.1,1.1,2.3,2,3.8,2.5c7.9,3.3,15.7,6.8,23.5,10.3c6,2.8,11.9,5.7,17.7,8.9c1.8,1,3.7,2.1,5.5,3.2c7.9,4.7,15.3,10.3,22.2,16.2
		c1.6,1.4,3.3,2.8,4.8,4.2c8.8,7.9,17.2,16.4,25.6,24.8c1.4,1.5,2.9,2.9,4.4,4.4c8.3,8.4,16.6,16.9,25.2,24.9c1.4,1.3,2.8,2.7,4.3,4
		c8.5,7.7,17.4,15,26.6,21.9c1.4,1.1,2.9,2.1,4.4,3.2c7,5.2,14.1,10.1,21.2,15.2c1.6,0.8,0.3,3.3-1.2,2.3c-7.6-4.3-14.8-9.1-22-14.1
		c-1.7-1.2-3.4-2.4-5.1-3.7c-6.7-4.8-13.1-9.9-19.4-15.2c-1.7-1.4-3.4-2.9-5.1-4.4c-8-7-15.8-14.4-23.5-21.7
		c-1.7-1.6-3.4-3.3-5.1-4.9c-7.5-7.2-15-14.5-22.6-21.6c-1.8-1.7-3.6-3.3-5.4-5c-7.6-6.9-15.6-13.5-24.2-19.2
		c-1.9-1.2-3.7-2.4-5.6-3.5c-5.1-3-10.4-5.6-15.8-8.1c-1.8-0.8-3.5-1.7-5.3-2.5c-3.4-1.6-6.9-3.1-10.3-4.6
		c-6.4-2.8-12.9-5.4-19.5-7.6c-4.1-1.4-8.7-1.6-12.7,0.2c-4.2,1.9-8.2,4.4-12,6.9c-16.1,10.9-29.4,25.3-42.2,39.9
		c-8.1,9.3-15.7,19-22.6,29.1c-12,17.6-22.1,36.3-33.5,54.2c-0.4,0.6-0.9,1.2-0.8,2c0.1,25.6,1.5,51.3,0,77
		c-0.4,6.9-1.2,13.9,0.2,20.8c1,5.2,3.7,10,3.8,15.4c0.2,7.7-2.8,15-4.1,22.4c-2,11.7-0.2,23.5,1.6,35.1
		c6.6,40.4,6.2,81.5,10.1,122.1c3.2,34,8.8,67.8,16.9,101c4.9-1.4,9.7-2.7,14.6-4c2.1-0.6,4.2-1.6,6.4-1.3c3.6,0.3,6.8,3,7.8,6.5
		c1.1,3.5,0,7.3-1.9,10.4c-2.5,3.9-6.3,6.7-9.3,10.3c-2.8,3.2-4.1,7.4-4.8,11.6c-2.6,15.3-1.6,31-0.9,46.4
		c2.1,42.9,4.7,85.9,12.7,128.1c0.8,4.2,1.6,8.4,2.2,12.6c0.4,3.3,1.6,6.4,1.6,9.7c0.2,5.7-1.2,12-5.7,16c-4.2,3.3-9.4,5.4-14.8,5.5
		c-5.9,0.1-11.9-2.5-15.3-7.3c-2.5-3.4-3.2-7.7-3.2-11.9c0.4-12.6-2.2-24.9-3.3-37.4c-2.6-24.8-3.9-49.7-3.8-74.5
		c-1.1-29-3.8-57.9-7.8-86.6c-5.1-36.5-12.1-72.7-17.4-109.2c-2.6-17.5-4.5-35.2-6.3-52.8c-2.6-25-5.2-50.1-10.7-74.7
		c-2-8.9-4.4-18-9.5-25.7c-4.9-7.4-11.9-13.1-18.6-18.8c-2.9-2.5-5.6-5.3-7.3-8.8c-1.1-2.3-1.2-5.4,0.8-7.2c2-1.9,5.1-1.6,7.4-0.3
		c3,1.8,5.9,4,8.6,6.3c3.4,2.9,6.2,6.5,10.2,8.7c1.8,1.1,3.9,1.5,6,2c2.1-6.9,2.7-14.2,3.4-21.4c4.1-45.1-0.5-90.3-0.6-135.5
		c-0.8-13.4-1.3-26.8-2.6-40.1c-2.6-28.4-7-56.6-11.6-84.7c-4.1-25.2-8.7-50.3-15.3-74.9c-7.5-28-17.5-55.3-30.6-81.2
		c-1.8-3.4-3.3-7.4-6.8-9.4c-5-2.9-11.1-2.5-16.6-1.5c-3.1,0.6-6.1,1.3-9.1,1.9c-1.1,0.2-2.2,0.4-3.3,0.6c-5,0.9-10,1.5-15,2.3
		c-2,0.3-4,0.7-6,1.1c-8.7,1.7-17.2,4.2-25.5,7.1c-1.9,0.7-3.8,1.4-5.7,2.1c-9.7,3.7-19,8-28.5,12c-1.8,0.7-3.5,1.5-5.3,2.3
		c-10.5,4.3-21.2,8-32.1,11c-2.1,0.6-4.1,1.1-6.2,1.7c-6.3,1.6-12.7,2.9-19.1,4.1c-1,0.2-2,0.4-3,0.6c-7,1-14,2.4-21,2.4
		c0-0.7,0-1.4,0-2.1c10.8-1.6,21.6-3.3,32.2-5.9c1-0.2,2-0.5,3-0.8c10.3-2.6,20.4-5.8,30.3-9.5c1.3-0.5,2.5-1,3.7-1.4
		c8.7-3.5,17.1-7.4,25.6-11.3c1.5-0.7,3-1.4,4.5-2.1c9.3-4.3,18.8-8.3,28.6-11.4c1.4-0.5,2.8-1,4.2-1.4c7.4-2.3,15-4.3,22.6-6.1
		c1.7-0.4,3.4-0.8,5.1-1.2c5.5-1.2,11-2.4,16.5-3.6c5.2-1,10.4-2.2,15.6-3.3c0-0.8-0.1-1.7-0.6-2.4c-12-19.3-24.3-38.6-37.9-56.9
		c-12.9-17.5-27-34-39.8-51.6c-8.2-11.2-16.2-22.7-24.9-33.5c-0.7-1-2-1.4-3.1-1.6c-6.7-1.4-13.5-2.8-20.3-3.8
		c-7-1.1-14.1-2-21.3-2.5c-1.6-0.1-3.3-0.2-4.9-0.3c-6.7-0.4-13.4-0.4-20.2-0.2c-1.9,0.1-3.8,0.2-5.7,0.3
		c-8.6,0.4-17.2,1.4-25.8,2.6c-1,0.1-2,0.3-3,0.5c-11.1,1.7-22.2,3.8-33.2,5.9c-1.4,0.2-2.7,0.5-4,0.8c-7.4,1.4-14.9,2.6-22.4,3.8
		c-1.6,0.2-3.1,0.5-4.7,0.8c-11.3,1.8-22.5,3.7-33.8,5.5c-1.3,0.2-2.7,0.5-4,0.7c-11.5,1.9-23.1,3.5-34.7,4.4c-2,0.1-4,0.5-5.9,0.3
		c-1.1-0.1-0.6-1.6-0.7-2.3c7.9-1.2,15.9-2.3,23.8-3.6c2-0.3,4-0.6,6-0.9c7.7-1.2,15.3-2.6,23-3.9c1.9-0.4,3.8-0.7,5.7-1
		c9.4-1.8,18.8-3.5,28.1-5.5c2.1-0.4,4.2-0.8,6.3-1.3c6.8-1.5,13.7-3,20.5-4.5c1.9-0.4,3.9-0.8,5.8-1.2c8.9-1.9,17.9-3.6,27-5.1
		c2.2-0.3,4.4-0.6,6.6-0.9c9.9-1.4,19.9-2.4,29.9-3c0.7-0.1,1.5-0.1,2.2-0.2c9.9-0.6,19.8-0.8,29.8-0.6c8.3,0.1,16.6,1,24.8-0.1
		c-22.8-30.6-41.8-63.9-58.6-98.2c-5.8-11.8-11.5-23.6-17-35.6c-0.8-1.7-1.6-3.3-2.4-5c-2.8-6.1-5.7-12.2-8.5-18.3
		c-1-2.1-2-4.2-2.9-6.3c-4-8.5-7.9-16.9-12-25.3c-1-2-2-4.1-3-6.1c-4.1-8-8.3-16-12.9-23.8c-1.2-2-2.4-4-3.7-6
		c-5.5-8.7-11.7-17-18-25.2c-1.4-1.8-2.8-3.6-4.3-5.3c-6-7.6-12.2-15.1-18.2-22.7c-1.2-1.5-2.4-3-3.6-4.6
		C177.7,235.2,170.9,225,163.7,214.9z"/>
	<path class="st2" d="M484.8,215.2c0.1-0.3,0.3-0.9,0.4-1.2c0,2.9,0.7,5.8,2.5,8.1c3.6,4.9,9.4,7.2,14.4,10.2
		c5.2,3.1,9.3,7.9,12,13.2c3.9,7.5,5.5,15.9,6.8,24.1c2.2,14.3,2.7,28.8,4.9,43.1c1.6,10.2,3.9,20.3,7.6,30
		c2.9,7.2,6.3,14.3,11.2,20.3c2.6,3.2,6,5.7,9.5,7.8c1.5,2.3,2.9,4.8,4.5,7c-8.9,1.8-17.8,3.6-26.4,6.3c-8.6,2.5-16.1,7.8-23.3,12.9
		c-4.8,3.3-10,6.4-13.4,11.3c-2.2,3-4.5,6.6-8.4,7.5c-4,0.8-7.7-1.7-9.9-4.8c-5.4-7.7-5.5-17.8-10.3-25.8
		c-4.7-7.9-12.5-13.3-19.1-19.4c-6.7-6-11.9-13.6-15.3-21.9c-4.9-11.4-5.8-24.1-5.3-36.3c0.9-20,2.6-40.8,11.9-58.9
		c4.7-9.1,11.4-17.4,20-23.1C466.8,220.4,475.7,217.2,484.8,215.2z"/>
	<path class="st0" d="M676.6,216.1c6.3,0.2,12.3,2.1,18.2,4.3c0.1-0.3,0.5-0.9,0.6-1.2c0,0.4,0.1,1.3,0.1,1.7
		c3.4,1.1,6.9,2.1,10.3,2.9c2.1,0.6,4.3,1.1,6.5,1.6c5.8,1.1,11.8,2.5,16.3,6.5c-4,2-8.3,3.4-12.4,5.2c-9,4-18.2,7.9-25.9,14.3
		c-6.8,5.4-11.6,13-14.3,21.2c-8.5-4.9-17.3-10.3-27.4-10.9c-4.9-4.9-10.3-9.3-15.4-14c2.1-2.3,4.4-4.6,7.2-6
		c5.8-3.1,12.6-4.3,17.4-8.9c4.6-4.4,7.9-9.9,10.5-15.7C671.1,216.7,673.8,216.4,676.6,216.1z"/>
	<path class="st3" d="M878.1,220.8c2.9,0.4,5.7,1.1,8.2,2.6c4.7,2.8,7.9,7.4,11.3,11.6c3.2,4,6.5,8.1,7.5,13.2
		c1.2,6.1-0.8,12.2-3.5,17.6c-4.9,9.4-11.2,17.9-16.9,26.8c-4.4,6.9-8.6,14.2-10.2,22.4c-0.9,4.4-0.5,9.3-2.8,13.3
		c-2,3.4-6,5.4-9.9,4.9c-5.3-0.5-9.4-4.2-13.9-6.6c-6.2-3.3-13.2-4.5-20-5.6c-12.1-1.6-24.3-3.6-36.6-3.2
		c-11.7,0.3-23.2,2.9-34.4,6.3c-10.3,3.2-20.5,7.2-29.8,12.7c-13.9,8.2-25.6,19.5-36.3,31.4c-7.9,8.9-15.3,18.4-21.9,28.3
		c-5.1-0.5-10.1-2.1-14.7-4.2c-1.4-0.6-2.6-1.6-3.7-2.6c5.6-8.7,11.7-17.2,18.9-24.7c13-13.9,29.1-24.4,44.8-35
		c10.7-7.2,21.2-15.2,33.6-19.3c4.9-1.7,10.1-2.4,15.2-3.2c-9.4-3.8-18.9-7.2-28.5-10.3c-13.5-4.1-27.7-6.9-41.8-4.8
		c-10.2,1.4-19.6,5.7-28.7,10.3c-5,2.4-10.6,4.5-16.2,3.1c-5.3-1.3-9.3-5.4-12-9.9c-2.3-3.6-4.4-7.4-7.7-10.1
		c-4.4-3.5-9.8-5.2-14.8-7.6c-6.8-3.1-12.5-8-19.3-11.1c-5.4-2.4-11.3-3.6-17.2-4.4c-7.1-1-14.1-2.5-21.3-2
		c8.3-4.9,18.4-5.1,27.7-3.7c6.1,1.1,12.2,2.5,18.2,4.3c9.5,2.9,19.6,2.9,29.4,1.6c5.9-0.8,11.9-1.7,17.8-1.6
		c10.1,0.6,18.9,6,27.4,10.9c6.3,3.6,13,6.3,20,8.1c12.6,3.3,25.8,3.9,38.3,7.6c12.2,3.5,23.6,9.6,33.6,17.5
		c1.6,1.5,3.9,1.1,5.9,0.8c8.6-1.2,17.3-2.8,25.5-5.9c10.5-3.9,20.1-9.7,29.4-15.9c8-5.5,16.2-10.9,23.5-17.3
		c6.3-5.5,11.5-12.1,15.5-19.5C872.1,239.3,875.7,230.2,878.1,220.8z"/>
	<path class="st9" d="M193,224.5c1.4,0.7,2.2,1.9,3,3.2c2.4,7.9,3.5,16.4,1.8,24.6c-1.4-1.6-2.8-3.1-4.2-4.7
		c1.1-3.8,1.6-7.8,1.3-11.8C194.7,232,193.7,228.2,193,224.5z"/>
	<path class="st5" d="M583.1,257.4c-2.1-10.2-1.9-21,1.2-31.1c3.4,2.2,7,4.1,10.3,6.5c3.7,2.6,7.9,4.4,11.7,6.6
		c3.3,1.9,6,4.7,8.5,7.6c4.8,5.9,10.3,11.1,15.9,16.3c-9.8,1.4-19.9,1.3-29.4-1.6C595.3,259.9,589.2,258.4,583.1,257.4z"/>
	<path class="st7" d="M196,227.7c1.1,1.1,2.2,2.2,3.3,3.2c3.4,3.2,7.7,5.3,10.7,8.9c1.9,2.1,3.5,4.7,6.3,5.7
		c2.2,0.7,2.7-2.1,3.9-3.4c0.9,5.5,1.8,11.1,1.6,16.7c-0.1,6-1.2,11.9-2.8,17.7c-6.8-8.3-13.9-16.2-21.1-24.2
		C199.5,244.1,198.4,235.6,196,227.7z"/>
	<path class="st9" d="M162.8,237.5c5.1,1.7,9.5,5.2,14.7,6.7c2.5,0.8,5.2,0.8,7.9,0.8c1.2,1.5,2.4,3,3.6,4.6c-2.5,0.4-5-0.3-7.4-0.9
		c-6.1-1.6-11.4-5.3-16.8-8.4C163.7,239.6,162,239,162.8,237.5z"/>
	<path class="st9" d="M220.1,242.1c0.8-0.2,1.6-0.4,2.3-0.6c0.4,0.6,0.7,1.2,1.1,1.9c1.2,5.8,2.3,11.8,2.2,17.8
		c0.1,6.9-1.1,13.7-3,20.2c-1.3-1.6-2.6-3.2-3.9-4.8c1.6-5.8,2.8-11.7,2.8-17.7C221.9,253.2,221,247.6,220.1,242.1z"/>
	<path class="st7" d="M223.6,242c4.9,2.9,6.1,8.9,9.7,13c1.8,2.1,5.7,2.9,7.6,0.5c1.2-1.1,2-3.3,4-3c2.9,0.7,5.1,3.1,6.7,5.5
		c-0.2,4.7,0.1,9.4-0.4,14.1c-0.9,12.4-4.9,24.4-10.5,35.4c-5.5-9-11.5-17.8-18-26.1c1.9-6.6,3.1-13.4,3-20.2c0-6-1-11.9-2.2-17.8
		C223.5,243,223.5,242.3,223.6,242z"/>
	<path class="st9" d="M154,255.3c2.1,0,3.8,1.2,5.6,2c8.2,4.2,16.3,8.8,25.2,11.5c7.2,2.2,14.8,3.5,22.4,3.4
		c1.4,1.8,2.8,3.5,4.3,5.3c-2.2,0.9-4.6,0-6.8-0.1c-8.8-0.7-17.6-3-25.6-6.7c-8.2-3.8-15.7-8.9-23.5-13.3
		C154.7,257,154.3,256.2,154,255.3z"/>
	<path class="st9" d="M251.6,257.9c1.1,1.4,2.3,2.7,3.1,4.3c1.2,17.5-1.9,35.5-10.5,50.9c-1.1-1.9-2.3-3.8-3.4-5.7
		c5.6-11,9.6-23,10.5-35.4C251.7,267.3,251.4,262.6,251.6,257.9z"/>
	<path class="st1" d="M538,276.2c4-6.8,10.3-11.9,17.3-15.2c7.2-0.5,14.2,1,21.3,2c5.8,0.9,11.7,2,17.2,4.4
		c6.8,3.1,12.5,8,19.3,11.1c5,2.3,10.5,4,14.8,7.6c3.4,2.7,5.4,6.5,7.7,10.1c2.7,4.5,6.8,8.6,12,9.9c5.6,1.4,11.2-0.7,16.2-3.1
		c9.1-4.6,18.5-8.9,28.7-10.3c14.1-2,28.3,0.7,41.8,4.8c9.6,3,19.1,6.5,28.5,10.3c-5.1,0.8-10.3,1.5-15.2,3.2
		c-12.4,4.1-22.9,12.1-33.6,19.3c-15.7,10.6-31.8,21.1-44.8,35c-7.2,7.5-13.3,15.9-18.9,24.7c-4.2-1.4-8.1-3.5-12.1-5.1
		c-12.1-5.1-24.5-9.4-37-13.4c-10.2-3.3-20.5-6.5-31.3-7.3c-6.2-10.9-11.5-22.4-16-34.1C547.4,312.5,542.5,294.4,538,276.2z"/>
	<path class="st7" d="M254.7,262.2c1.9,3.3,3.4,6.8,5.5,10c1,1.5,2.3,3.1,4.2,3.1c1.8-0.1,3.4-1.1,5.2-1.2c2.1,0.1,3.9,1.6,4.3,3.7
		c0.5,1.7,0.8,4.4,3.1,4.5c1.8-0.2,3.3-1.5,5-1.9c0.5,4.5,0.3,9,0.3,13.5c-1.9,18.6-10.6,35.6-21,50.9
		c-5.5-10.7-11.1-21.3-17.2-31.7C252.8,297.7,255.9,279.7,254.7,262.2z"/>
	<path class="st9" d="M147.8,281.6c0.1-0.7,0.2-1.7,1.2-1.6c1.9,0.7,3.6,1.8,5.4,2.8c11.4,6.4,22.5,13.6,35,17.7
		c12.8,4.3,26.7,5,40,2.2c1.3,2,2.5,4,3.7,6c-18.7,3.3-38.3-0.1-55.1-8.9C167.6,294.4,157.8,287.8,147.8,281.6z"/>
	<path class="st9" d="M282.8,281c2.5,2.5,0.8,6.3,2.4,9.2c1,1.9,1.2,4,1.1,6c-0.9,11.8-5,23-10.1,33.6c-3.5,7.1-7.3,14.2-12.1,20.6
		c-0.9-1.9-1.9-3.7-2.9-5.6c10.3-15.2,19-32.3,21-50.9C283.2,289.6,282.5,285.3,282.8,281z"/>
	<path class="st7" d="M286.8,292.1c1.3,0.7,2.7,1.4,3.8,2.5c1.5,1.5,1.5,4.1,3.3,5.4c2.6,1.4,6.2,0.8,8.3,3.1
		c3.2,3.2,3.8,8,4.3,12.3c-4,22.1-14.3,43.3-30.1,59.4c-4.1-8.1-8.1-16.3-12.2-24.4c4.8-6.4,8.6-13.5,12.1-20.6
		c5.1-10.6,9.2-21.8,10.1-33.6C286.5,294.8,286.6,293.5,286.8,292.1z"/>
	<path class="st9" d="M306.5,315.3c1,1.9,1.9,3.8,2.8,5.7c-3.1,19.2-11.6,37.3-23.9,52.3c-2,2.4-3.9,4.8-6.3,6.8
		c-0.9-1.8-1.8-3.6-2.7-5.4C292.2,358.6,302.5,337.5,306.5,315.3z"/>
	<path class="st9" d="M149.7,317.3c1.1,0.1,2.1,0.3,3,0.9c17.9,10.3,37.4,18.8,58.2,20.1c11.9,0.8,24-1.2,35.1-5.8c1,2,2,4,3,6.1
		c-14.9,5.4-31.2,6.4-46.7,3.5c-19-3.5-36.8-12.2-52.7-23C149.7,318.5,149.7,317.7,149.7,317.3z"/>
	<path class="st0" d="M756.9,324.3c11.2-3.4,22.7-6,34.4-6.3c12.3-0.4,24.5,1.5,36.6,3.2c-0.6,0.4-1.4,0.7-1.5,1.4
		c-6.3,19.5-10.2,40.2-20.7,58.1c-4.7,8-10.6,15.3-17.9,21c-8.3,6.7-18.2,11.4-26.1,18.7c-1.3,1-1.1,2.8-1.3,4.3
		c-0.1-1.4,0-3.2-1.5-3.9c-9.7-6.5-20.6-11-31.8-14.1c-11.9-3.4-24.2-4.6-36.4-6.3c-7.4-0.9-14.7-2.3-22-3.7
		c6.6-9.9,14-19.4,21.9-28.3c10.7-12,22.4-23.2,36.3-31.4C736.4,331.5,746.5,327.4,756.9,324.3z"/>
	<path class="st7" d="M309.3,321.1c3.2,4.6,7.2,8.6,10.4,13.3c4.9,7.3,8.4,15.5,10.5,24c0.6,2.4,0.7,4.9,1.8,7.1
		c-2.2,2.8,1.9,5.8,0,8.5c-1.8,2.5-4.7,3.7-6.8,5.9c-2,2.1-3.6,4.6-4,7.5c0.2,2.3,3.4,0.4,4.3,2.2c0.7,1.7-1.2,3-2.6,3.4
		c-2.9,0.8-5,3.1-6.8,5.3c-3,3.9-6.2,7.8-8.6,12.2c-2.2,4.1-4.4,8.2-7.2,11.9c-7.2-14-14.2-28-21.2-42.1c2.4-2,4.3-4.5,6.3-6.8
		C297.7,358.4,306.2,340.2,309.3,321.1z"/>
	<path class="st10" d="M389.8,330.8c2.2-1.9,4-4.1,5.8-6.3c-0.7,14.3,0.2,28.7,0.1,43c-0.6-2.3-0.7-4.8-1.7-7
		c-1.5-0.5-1.5,1.1-1.2,2.2c1.4,7.4,1.4,15,2.7,22.4c2.8,16.3,10.8,31.5,22.4,43.2c-3.9,8.1-7.8,16.2-11.8,24.3
		c-5.7-5.5-10.9-11.6-15-18.4c-7.5-12.6-12.8-26.5-15.2-41c-0.5-2.6-0.5-5.4-1.1-8c-0.4-0.1-1.1-0.2-1.4-0.3
		c0,19.1,6.2,37.9,16.4,53.9c4.1,6.5,8.8,12.7,13.9,18.4c-4.1,7.9-8.1,15.8-12.4,23.5c-7.6-6.4-14.4-13.9-20.1-22.1
		c-5.5-7.7-9.8-16.3-11.7-25.6c-0.6-2.3-0.6-4.7-1.2-6.9c-0.5-1.2-2.3-0.4-1.8,0.8c0.3,10,3.5,19.7,8.1,28.6
		c6,11.4,14.2,21.7,24,30.2c-3.6,6.3-7.4,12.5-11.5,18.6c-9.6-5.2-17.4-13.3-23-22.6c-3.4-5.4-5.7-11.4-9.1-16.8
		c-0.7-1.2-1.5-2.5-1.6-3.9c-0.4-2.9,2.1-5.2,1.7-8.1c-0.4-3.6-2.8-6.7-3.4-10.3c-0.7-3.1,0.7-6.1,0.9-9.2c0.3-3.4-1.5-6.7-0.6-10.1
		c0.9-3,3.6-5.1,4.1-8.2c1.2-4.6-1.5-9.1-0.8-13.8c0.2-1.6,1.1-3.1,2.6-3.8c0.5,0.2,1.4,0.6,1.9,0.9c2-3,1.4-6.8,1.5-10.3
		c0-2.5,0.4-5,0.4-7.5c-0.1-1.6,0.4-3.6,2.1-4.3c1.9-0.8,4.1-1.7,4.9-3.7c1.1-3.3,0.7-7,1.9-10.4c0.5-1.5,2-2.3,3.6-2.4
		c1.5-0.1,3.5-0.9,3.2-2.7c-0.5-3,0.1-6.1,1.8-8.7c1.1-1.6,1.6-3.8,3.5-4.7c1.4,0.5,2.9,2,4.4,1c1.3-1,1.4-2.7,1.8-4.2
		c0.9-4.3,3.1-8.2,6.2-11.3c1.2-0.8,1.9,0.9,2.5,1.6C387.6,331.6,389.1,331.6,389.8,330.8z"/>
	<path class="st9" d="M162.9,351.8c1,0.1,2.1,0.3,3,0.9c8.2,4.5,17.1,7.6,25.9,10.3c10.6,3.2,21.3,6.2,32.3,7.1
		c12.6,1.1,25.4-1,36.9-6.2c1,2.1,2,4.2,2.9,6.3c-12.7,5-26.7,6.7-40.2,4.9c-12.5-1.6-24.5-5.5-36.3-9.6c-8.7-3.1-17.4-6.6-25-12
		C162.6,353.1,162.8,352.2,162.9,351.8z"/>
	<path class="st9" d="M392.8,362.7c-0.3-1-0.3-2.7,1.2-2.2c1,2.2,1.2,4.7,1.7,7c0.3,2.7,0.7,5.4,1.2,8c1.9,17.9,10.4,34.9,23.4,47.3
		l-0.1,0.6c-0.7,1.6-1.5,3.2-2.3,4.9c-11.6-11.7-19.6-26.9-22.4-43.2C394.1,377.7,394.1,370.1,392.8,362.7z"/>
	<path class="st4" d="M554.1,370.9c4-4.4,9.9-6.9,15.9-6.8c10.7,0.7,21.1,4,31.3,7.3c12.5,4.1,24.9,8.4,37,13.4
		c4.1,1.6,8,3.7,12.1,5.1c1.1,1,2.3,2,3.7,2.6c4.7,2.1,9.6,3.6,14.7,4.2c7.3,1.4,14.6,2.8,22,3.7c12.2,1.6,24.5,2.9,36.4,6.3
		c11.2,3.2,22.1,7.6,31.8,14.1c1.5,0.7,1.4,2.5,1.5,3.9l0,0.4c-0.5,2.6-1.8,5.1-3.8,6.9c-3.1,2.9-7.1,4.4-10.8,6.5
		c-4.2,2.3-8.8,4.9-13.7,4.4c-5.6-0.5-10.3-4-15.5-5.8c-10.5-3.7-21.8-2-32.7-1.8c-12.9,0.4-26-2.8-36.9-9.9
		c-7.2-4.7-13-11.2-19.7-16.4c-4.1-3.2-8.8-5.9-14-6.7c-7.8-1.2-15.7,1.7-23.5,0.3c-6.3-1-12-4.2-16.8-8.2
		c-5.6-4.7-10.3-10.4-14.4-16.4C557,375.7,555.6,373.2,554.1,370.9z"/>
	<path class="st10" d="M396.9,375.5c1.3,2.9,2.1,6,3.8,8.7c2.2,3.8,5.5,7,9.5,8.8c6.8,3.1,14.5,2.8,21.8,3.4
		c-3.7,9.1-7.8,18-11.9,27l0.1-0.6C407.3,410.4,398.8,393.4,396.9,375.5z"/>
	<path class="st5" d="M532.2,384.2c8.7-2.7,17.6-4.5,26.4-6.3c4.1,6,8.8,11.7,14.4,16.4c4.8,4,10.5,7.2,16.8,8.2
		c7.8,1.4,15.7-1.5,23.5-0.3c5.2,0.8,9.9,3.5,14,6.7c6.8,5.2,12.5,11.7,19.7,16.4c10.8,7.1,24,10.3,36.9,9.9
		c10.9-0.2,22.2-1.9,32.7,1.8c-3.7,2.2-7.9,3.1-11.9,4.4c-14.8,3.9-30.2,5.3-45.4,5.1c-13.5,0.1-26.9-1.3-40.3-3.3
		c-12.8-1.6-25.3-5-37.2-10c-10.2-4.4-20.1-9.7-28.8-16.6c-3.1-4-6.4-7.7-9.3-11.9C539.3,398.3,535.3,391.4,532.2,384.2z"/>
	<path class="st9" d="M373.2,384.8c0.4,0.1,1.1,0.2,1.4,0.3c0.6,2.6,0.6,5.3,1.1,8c2.4,14.5,7.7,28.4,15.2,41
		c4,6.9,9.3,12.9,15,18.4c-0.8,1.5-1.6,3.1-2.4,4.7c-5.1-5.8-9.8-11.9-13.9-18.4C379.4,422.7,373.2,403.9,373.2,384.8z"/>
	<path class="st9" d="M208.1,395c21.5,4.4,44.5,2.6,64.5-6.6c0.8,1.7,1.6,3.4,2.4,5c-1.5,1.4-3.4,2-5.3,2.7
		c-6,2.3-12.2,3.9-18.5,4.9c-19.4,2.9-39.8,0.5-57.8-7.6c-1-0.4-1.8-1.1-2.3-2c0.3-0.3,0.9-0.9,1.1-1.2
		C197.5,392.1,202.7,394,208.1,395z"/>
	<path class="st10" d="M436.8,397c2.7,0.4,5.3,1.2,7.7,2.4c-3.5,1.9-7.1,3.7-10.7,5.5C434.8,402.2,435.8,399.6,436.8,397z"/>
	<path class="st9" d="M444.5,399.4c1.3,0.6,2.5,1.3,3.7,2.2c-5.8,3.1-11.4,6.6-17.1,9.8c0.9-2.2,1.8-4.4,2.7-6.5
		C437.3,403.1,440.9,401.3,444.5,399.4z"/>
	<path class="st10" d="M431,411.4c5.7-3.3,11.3-6.8,17.1-9.8c6.7,4.6,11.2,11.5,16.4,17.5c-13.9,11.7-29.8,21.8-47.7,25.6
		C421.8,433.6,426.5,422.5,431,411.4z"/>
	<path class="st11" d="M853.3,423.6c3.1-3.1,5.7-6.8,8.4-10.2c8.4,5.8,14.5,14.6,17.1,24.4c3.5,12.6,0.9,26.5-6.3,37.4
		c-5.7-2.6-11.9-3.6-18.2-3.6c-4.1,0-8.1-1.1-11.6-3.3l-0.1-0.2c-1.8-3.2-1.6-7-3.2-10.2c-2.8-7.7-9.7-13.1-17.2-16
		c-3.5-1.4-7-2.6-10.6-3.7c3.9,0,7.8,0.3,11.6-0.1C834.6,436.8,845.4,431.7,853.3,423.6z"/>
	<path class="st0" d="M534.9,417.2c5.8-1.8,12.2-2.7,18-0.6c8.8,6.8,18.6,12.2,28.8,16.6c11.9,5,24.4,8.4,37.2,10
		c-2.2,1.5-5,1.7-7.5,2.5c-17.6,5.1-34.9,11.4-50.9,20.4c-5.9,3.4-12.2,7-15.5,13.2c-3.3,6.1-2.3,13.7,0.6,19.8
		c3.8,8.1,10.3,14.5,17.1,20.2c0.7,0.6,1.3,1.3,2,2c-1.8-0.5-3.6-0.9-5.3-1.5c-3.6-1.2-7.1-2.6-10.6-4.1c-1.1-0.5-2.2-1.1-3.2-1.6
		c-8.5-4.4-16.4-10.3-21.8-18.3c-0.5-0.7-0.9-1.4-1.4-2.1c-4.7-8.1-5.8-17.6-6.9-26.8c-0.2-1.5-0.3-2.9-0.4-4.3
		c-1-11.1-0.6-23.1,5.6-32.8C524.1,424.2,529.2,420.1,534.9,417.2z"/>
	<path class="st11" d="M513.5,423.6c6.8-3.1,13.9-5.7,21.5-6.3c-5.7,2.8-10.8,7-14.1,12.5c-6.1,9.7-6.6,21.7-5.6,32.8
		c-6.7,2.9-13.8,4.2-20.8,6c-2.8,0.7-5.7,1.5-8.5,2c-0.4-3.5-0.9-7.1-0.9-10.6l-0.5,0.2c0.9-2.1,0.3-4.5,0.5-6.8
		c0.4-7.5,1.8-15,4.2-22.1C497.9,430.7,505.8,427,513.5,423.6z"/>
	<path class="st9" d="M464.6,419c0.6,0.7,1.2,1.3,1.8,2c-14.5,14.3-33,23.8-52.3,30c0.9-2.1,1.9-4.2,2.8-6.3
		C434.8,440.8,450.7,430.7,464.6,419z"/>
	<path class="st10" d="M414.1,450.9c19.2-6.1,37.8-15.7,52.3-30c2.5,2.6,5.2,5,8.3,6.9c4.4,2.6,9.5,3.6,14.6,3.4
		c-2.4,7.1-3.8,14.6-4.2,22.1c-0.2,2.2,0.3,4.6-0.5,6.8c-1.6,0.6-3.4,0.9-4.7,2c-2.1,1.8-3.3,4.3-5.2,6.3c-1.2,1.3-2.6,2.5-3.2,4.3
		c-0.3,1.4-0.1,2.8-0.2,4.2c-0.4,1.6-2.2,2-3.6,2.5c-3.4,1.2-5.9,3.9-8.2,6.5c-1.8,2.1-3.7,4-5.3,6.2c-1.1,1.2-0.3,3.2-1.4,4.4
		c-1.1,0.5-2.5,0.4-3.5,1c-0.7,1.2-0.1,2.9-1.3,3.9c-1.7,1.5-4.1,1.3-6.2,1.9c-4.4,1.1-8.3,3.3-12.3,5.4c-6,3-12.5,5.2-19.3,5.7
		c-8.8,0.5-17-3.3-25-6.4c4.6-8.2,9.1-16.4,13.4-24.7c18.9,0.3,37.9-5.4,53.2-16.6c5.2-3.9,10-8.4,13.9-13.7c0.7-0.7-0.4-1.5-0.8-2
		c-5.3,5.8-11.2,11.3-18.2,15.1c-13.8,7.4-29.5,11-45.1,11.3C405.9,468.8,410,459.9,414.1,450.9z"/>
	<path class="st1" d="M760.4,425c11.3,5.8,24.1,7.4,36.4,10.2c4.9,1.2,9.9,2,14.9,2.9c3.6,1.1,7.1,2.2,10.6,3.7
		c7.4,2.9,14.4,8.3,17.2,16c1.6,3.2,1.4,7.1,3.2,10.2c-0.8,0.6-0.5,1.7-0.4,2.5c0.3,3.3-0.1,7-2.6,9.3c-2.1,2.1-5.3,2.1-8,1.2
		c-4.8-1.6-8.9-5-14-5.8c-3.3-0.7-6.9,0.3-9.1,2.9c-3.3,3.7-3.6,9-2.8,13.7c1.5,8.7,6.5,16.1,10.2,24c2.5,5.4,4.4,11.3,4.1,17.3
		c-0.3,9.1-4.3,17.6-9.8,24.8c-6.6,8.7-15,15.8-24.1,21.8c-4.6,3-9.5,5.6-15,6.5c-4.1,0.7-8.2,0.1-12.2-1
		c-6.6-1.8-12.7-5.2-19.4-7.1c-10.4-3-21.8-2.4-31.8,1.8c-9.4,3.8-18.2,10-28.6,10.9c-11,1-22-3.3-30.4-10.2c-3.5-2.8-6.7-6-9.7-9.4
		c-5-5.6-9.5-11.6-14.3-17.3c-0.5-0.6-1-1.1-1.4-1.7c-1.3-1.5-2.7-3.1-4.1-4.6c-4.4-4.6-9.2-9.1-14.7-12.3
		c-12-7.8-26.4-10-39.8-14.2c-0.6-0.7-1.3-1.4-2-2c-6.8-5.6-13.3-12.1-17.1-20.2c-2.9-6.1-3.9-13.6-0.6-19.8
		c3.3-6.2,9.6-9.9,15.5-13.2c16-8.9,33.3-15.2,50.9-20.4c2.5-0.8,5.2-1,7.5-2.5c13.3,2,26.8,3.4,40.3,3.3
		c15.3,0.2,30.6-1.2,45.4-5.1c4-1.3,8.3-2.1,11.9-4.4c5.2,1.8,9.9,5.3,15.5,5.8c5,0.5,9.5-2.1,13.7-4.4c3.6-2.1,7.7-3.6,10.8-6.5
		C758.6,430.2,760,427.7,760.4,425z"/>
	<path class="st9" d="M356.3,426.9c-0.5-1.2,1.3-2,1.8-0.8c0.6,2.3,0.6,4.7,1.2,6.9c1.9,9.3,6.3,17.9,11.7,25.6
		c5.7,8.2,12.5,15.6,20.1,22.1c-0.9,1.7-1.9,3.3-2.8,5c-9.8-8.5-17.9-18.7-24-30.2C359.8,446.7,356.6,436.9,356.3,426.9z"/>
	<path class="st9" d="M446.5,466.2c7-3.8,12.9-9.2,18.2-15.1c0.4,0.5,1.5,1.2,0.8,2c-3.9,5.2-8.7,9.8-13.9,13.7
		c-15.3,11.2-34.3,16.9-53.2,16.6c1-1.9,2-3.9,3-5.8C417.1,477.2,432.7,473.6,446.5,466.2z"/>
	<path class="st7" d="M510.3,472c1.9-1.6,3.5-3.5,5.4-5.1c1.1,9.1,2.2,18.7,6.9,26.8c-3.8,10.3-6.4,21.1-8,32
		c-1.7,12.6-1.9,25.5,1.2,37.9c2,8.1,5.6,15.8,10.4,22.6c-6.6,7.3-13.3,14.5-20.2,21.4c-5.9-9.4-10.5-19.5-13.9-30.1
		c-3.1-9.7-5.3-19.8-5.1-30c0.2-8.3,1.6-16.6,3.5-24.7c0.2-1.1,0.3-2.1,0.4-3.2c-0.7-0.1-1.3-0.1-2-0.2c-4.8,14.2-6.7,29.5-4.9,44.4
		c2.1,17.3,7.7,34.1,16.3,49.3c-3.7,3.6-7.5,7.1-11.3,10.5c-6.7-7.5-12.8-15.7-17.1-24.9c-5-10.4-7.5-22-6.9-33.5
		c0-2.7,0.8-5.4,0.4-8.1c-1.1-0.5-2.1,0.1-2.2,1.2c-1.8,9.6-2.5,19.7-0.4,29.3c3.2,15.1,11.7,28.4,21.9,39.7c-2,1.8-4.1,3.5-6.1,5.4
		c-15.9-4.8-29.1-17.9-34-33.8c-1.7-6.1,2-12.1,1.1-18.3c-0.4-3.7-2.3-7-4.5-10c-1.1-1.6-2.1-3.8-0.9-5.6c1.4-1.6,4-1.6,5.3-3.3
		c1.7-2.3,1.9-5.3,1.8-8c-0.2-3.8-0.2-7.7-0.2-11.5c-0.1-1.5,0.7-3.2,2.3-3.5c1.2,0,2.4,0.3,3.7,0.4c1.8-5.3,2.7-10.8,3.3-16.4
		c0-1.1,0.7-2,1.6-2.6c0.7,0.3,1.4,0.7,2.1,1.1c2.7-2,3.9-5.5,4.1-8.7c0.1-2.7,1.1-5.7,3.5-7.2c1-0.7,2.2,0,3.1,0.5
		c2.7-1.8,5.1-4.4,5.7-7.7c0.4-2,0.1-4.4,1.6-6.1c0.7-0.7,2-1.4,2.9-0.5c1.1,0.9,1.9,2.8,3.6,2.4c3.9-1.1,5.8-5.2,7.4-8.6
		c1.6-3.5,4.3-6.3,6.9-9.1c0.5-0.6,1.1-0.8,1.9-0.8c1.1,1.1,1.5,2.6,2.2,4C506,477.4,507.6,474.2,510.3,472z"/>
	<path class="st12" d="M210.9,476.4c0-1.7,0.6-3.5,1.9-4.6c0.9-0.8,1.9,0.2,2.6,0.7c1.4,1.3,3.5,1.3,4.9,2.6c1.7,1.5,4,3.5,6.4,2.4
		c1.7-0.7,1-3.1,2.4-4c1.8-1.2,4-0.4,5.6,0.8c2.8,2,5.6,4.4,9.1,5.1c2.7,0.6,3.4-3.9,6.2-2.9c3.4,1.8,6.8,3.8,9.5,6.5
		c1.1,1.2,3.4,2.2,4.5,0.4c0.3-1.3-0.1-4.2,2.1-3.5c5.2,3.4,7.5,9.8,12.6,13.3c2,1.3,3.6-0.9,5.1-1.8c2.4,2.2,2.6,5.8,4.9,8.1
		c2,2.1,4.2,4.5,7.1,5.2c2.3,0.6,4.2-0.8,6.1-1.9c1.2-0.6,1.9,0.9,2.4,1.7c1.5,2.6,3.6,4.7,5.6,6.9c4.6,5.9,9.8,11.2,15.8,15.7
		c-9.9-0.2-19.9,0.1-29.8,0.6c-4.4-8.1-10.3-15.6-17.4-21.5c-8.9-7.5-20-12.4-31.5-14.3c-1.4-0.1-1.1,2.1,0.2,2
		c17.9,4.7,33.3,17.3,42.6,33.1c0.7,1.6,2.5,0.9,3.9,0.9c-10,0.6-19.9,1.6-29.9,3c-12.4-20.7-34.3-36.2-58.6-38.7
		c-1.2-0.2-3.8-0.3-2.8,1.6c2.6,0.9,5.4,0.8,8,1.6c19.8,4.9,36.5,19,46.8,36.4c-9,1.5-18,3.1-27,5.1c-10.8-13.5-24.6-25.1-41-31
		c-6.7-2.4-13.7-4-20.8-4.8c-1.1-0.1-3.2-0.3-2.2,1.4c5.7,1.2,11.4,2.3,16.9,4.4c16.5,5.9,31.5,16.6,41.3,31.3
		c-6.8,1.5-13.7,3-20.5,4.5c-13.3-12.4-30-20.7-47.5-25.6c-3.4-0.9-6.7-2.1-10.2-2.4c0,0.4,0,1.2,0,1.6c8.7,2.5,17,6.2,25.2,9.9
		c9.7,4.4,19,9.9,26.2,17.8c-9.3,2-18.7,3.7-28.1,5.5c0-0.2-0.1-0.6-0.1-0.8c-8.8-6.2-18.6-11-28.9-14c-6.1-1.7-12.2-3.1-18.4-4.4
		c-0.2,0.3-0.5,0.9-0.6,1.2c5.7,2.1,11.7,3.2,17.4,5.3c8.1,2.9,15.8,7.1,22.5,12.6c0.7,0.6,1.5,1,2.4,1.2c-7.7,1.3-15.3,2.7-23,3.9
		c-8.6-6-18.7-9-28.7-11.3c-1.8-0.2-4-1.8-5.6-0.3c2.8,1.6,6.1,2.1,9.1,3.1c6.9,2,13.6,4.9,19.3,9.4c-7.9,1.3-15.9,2.4-23.8,3.6
		c0.1,0.7-0.4,2.2,0.7,2.3c2,0.2,4-0.2,5.9-0.3c11.6-0.9,23.2-2.5,34.7-4.4c-2,2.9-4.1,5.8-6.6,8.3c-4.1,4.2-8.9,7.6-13.6,11.1
		c-1.4,1.1-3.1,2-3.6,3.9c0.8-0.1,1.5-0.3,2.2-0.7c9.8-7,20-13.9,27.7-23.4c-0.5,0-1.6,0.1-2.1,0.2c11.3-1.9,22.5-3.7,33.8-5.5
		c-3.8,7.4-8.4,14.5-14.4,20.3c-6.5,6.5-14.4,11.4-20.7,18c0.2,0.2,0.7,0.7,0.9,0.9c1.9-1.2,3.5-2.9,5.3-4.3
		c6.9-5.5,14.2-10.6,20.5-16.8c5.8-5.8,11-12.2,15.3-19.2c-0.5,0.1-1.6,0.2-2.1,0.2c7.5-1.2,14.9-2.5,22.4-3.8
		c-2,8.5-5.8,16.5-10.3,24c-4.3,6.9-8.6,13.9-13.7,20.2c-1,1.1,0.4,2.3,1.4,1.2c12.3-13.3,22.7-28.9,28.1-46.4c-0.3,0-1,0.1-1.4,0.2
		c11.1-2,22.1-4.2,33.2-5.9c-2,10.6-7.1,20.5-13.3,29.2c-6.5,9-14,17.3-23.1,23.6c0.1,0.9,1,1.7,1.8,0.9
		c19.6-12.3,33.6-32.4,40.1-54.4c-0.8,0.1-1.6,0.1-2.4,0.2c8.5-1.2,17.1-2.2,25.8-2.6c-1.9,11.4-5.4,22.5-10.6,32.8
		c-3.4,6.9-7.9,13.3-13.6,18.6c-2,1.9-4.2,3.5-6.2,5.4c0.4,0.4,0.8,0.9,1.1,1.3c7.6-4.6,13.9-11.3,19-18.6
		c8.1-11.9,13.3-25.6,15.9-39.7c6.7-0.2,13.4-0.2,20.2,0.2c-0.6,11.5-3.9,22.6-7.9,33.3c-2.6,7.1-6.3,14-12,19.1
		c0.4,0.5,0.7,1,1.1,1.5c6.1-4.5,10.4-11.1,13.7-17.8c5.3-11.2,9.2-23.3,10-35.7c7.1,0.5,14.2,1.4,21.3,2.5c-3,5-5,10.6-6.2,16.3
		c-1.3,5.6-1.8,11.4-4.1,16.6c-1.5,3.4-4.1,6.5-7.4,8.2c-2.4,1.2-4.9,2.8-5.7,5.5c-1,2.8-0.3,6.6-3.2,8.4c-2.8,1.2-6.3,1.1-8.4,3.6
		c-3.6,3.7-5.9,9.8-11.7,10.5c-0.7-1.2-0.9-3.7-2.8-3.5c-1.8,0.6-2.7,2.5-4,3.8c-1.8,2.3-4.8,3.2-7.2,4.7c-1,0.6-2.5,1-3.5,0
		c-0.8-1.1,0.9-2.3,0.1-3.4c-0.7-0.3-1.4,0-2.1,0.4c-2.2,1.3-5.1,1-7.2,2.5c-2.9,1.9-6.3,3.5-9.8,3.1c-1.6-0.7-0.9-2.5-0.9-3.8
		c-0.4-1.2-1.8-1.1-2.7-0.5c-2.4,1.4-5.3,1.4-7.8,2.6c-2.6,1.1-4.9,2.7-7.3,4.2c-1.3,0.9-3.5,0.5-3.9-1.2c-0.3-1.3,0.1-3.4-1.8-3.6
		c-2.7,0.8-5.3,2.1-8.1,2.8c-2.6,0.7-4.8,2.1-7.3,2.9c-1.1,0.5-2.6-0.2-2.6-1.5c0-1.6,0.5-3.1,0.4-4.7c-3.9-0.2-7.9,0.4-11.3,2.3
		c-2.9,1.7-6.4,1.7-9.3,3.3c-1.2,0.5-2.4,1.3-3.8,0.9c-2.9-1-1.4-5.6-4.5-6.5c-2.6-0.2-5.3-0.7-7.8-0.1c-3,1.3-6.1,2.6-9.4,3
		c-2.3,0-1.2-2.7-1.6-4.1c-1.1-1.9-3.5-1.5-5.3-1.4c-4.7,0-9.1,1.7-13.8,1.5c-0.8,0.1-1.5-0.4-2-0.9c0.4-1,1-1.9,1.1-3
		c-0.1-1.6-1.9-2-3.1-2.6c-4.4-2.1-9.3-0.4-13.8-0.3c-1.4,0-2.2-1.4-2.1-2.7c0.2-3.1-1.6-6.4-4.8-7.3c-3.2-0.8-6.5-0.9-9.8-1.4
		c-0.8,0-1.4-0.6-1.9-1.1c0.3-1.2,1.1-2.5,0.4-3.6c-1.2-1.6-3.4-1.7-5-2.6c-2.8-1.6-5.1-3.9-7.5-6.1c-2.3-2.1-4-4.9-6.6-6.7
		c-2.1-1.5-4.9-1.8-7.2-2.9c-3.2-1.6-6-3.9-8.9-6c-1.2-0.9-2.7-1.9-2.7-3.6c0.2-1.8,2.3-2,3.6-2.5c5.1-1.7,10.6-3,15-6.3
		c3.7-2.5,7.4-5.7,8.7-10.1c-0.1-1.6-2.9-1.2-2.8-2.9c0-2.1,1-4.2,2.7-5.4c2.1-1.6,4.7-2.6,6.5-4.5c1.3-1.3,2.1-3,2.8-4.7
		c-0.8-0.7-1.7-1.4-2.4-2.3c-0.6-1.1-0.1-2.5,0.9-3.2c4.8-3.4,10.5-5.1,15.6-7.9c2.2-1.2,4.6-2.7,5.4-5.2c0.7-1.8-0.9-3.5-0.7-5.4
		c1.2-2.3,4.3-1.9,6.5-2c3.5-0.2,7.6,1.3,10.6-1.1c2-1.4,1.8-4.2,3.3-5.9c1.9-1.8,4.5-0.2,6.7-0.7c3.1-0.6,7.1-0.3,8.9-3.4
		c-0.5-1.1-1.7-2.2-1-3.5c1.1-1.5,3.2-1.1,4.8-1.3c3.4-0.3,6.9,1.5,10.1,0.1c2.2-1.1,0.7-4.2,2.2-5.8c1.5-1.8,4.1-1.3,5.9-0.3
		c2.5,1.3,5.4,1.9,8.1,2.5c1.1,0.3,2.4,0.3,3.2-0.6c1.5-1.3,0.7-3.9,2.3-5.1c1.1-0.8,2.5-0.3,3.4,0.4c2.4,1.8,5.3,2.7,7.8,4.2
		C208.9,478.7,211,478,210.9,476.4z"/>
	<path class="st9" d="M202.5,494c-1-1.9,1.6-1.8,2.8-1.6c24.3,2.4,46.2,17.9,58.6,38.7c-2.2,0.3-4.4,0.6-6.6,0.9
		c-10.2-17.4-27-31.5-46.8-36.4C207.9,494.9,205.1,494.9,202.5,494z"/>
	<path class="st9" d="M247.2,494.1c-1.3,0-1.6-2.1-0.2-2c11.5,2,22.5,6.8,31.5,14.3c7.2,5.9,13,13.4,17.4,21.5
		c-0.8,0.1-1.5,0.1-2.2,0.2c-1.3-0.1-3.2,0.7-3.9-0.9C280.5,511.4,265.1,498.8,247.2,494.1z"/>
	<path class="st9" d="M514.6,525.6c1.6-10.9,4.2-21.6,8-32c0.4,0.7,0.9,1.4,1.4,2.1c-3.2,12.4-5.8,25-6.4,37.9
		c-0.6,12,0.6,24.5,5.7,35.6c2,4.2,4.6,8.2,7.6,11.7c-1.5,1.7-3.1,3.4-4.6,5.2c-4.8-6.8-8.4-14.5-10.4-22.6
		C512.7,551.2,512.9,538.2,514.6,525.6z"/>
	<path class="st7" d="M524,495.8c5.4,7.9,13.3,13.9,21.8,18.3c-2.5,11.8-3.1,24.4,0.7,36.1c1.1,3,1.9,6.2,4,8.7
		c-6.5,7.4-13,14.8-19.6,22.2c-3-3.6-5.6-7.5-7.6-11.7c-5.1-11-6.3-23.5-5.7-35.6C518.1,520.8,520.8,508.2,524,495.8z"/>
	<path class="st9" d="M166.3,502.7c-1-1.7,1.2-1.5,2.2-1.4c7.1,0.8,14.1,2.3,20.8,4.8c16.4,5.9,30.2,17.5,41,31
		c-1.9,0.4-3.9,0.8-5.8,1.2c-9.8-14.7-24.8-25.3-41.3-31.3C177.7,505,172,503.9,166.3,502.7z"/>
	<path class="st9" d="M545.7,514.1c1.1,0.6,2.1,1.1,3.2,1.6c-1.4,8.5-1.8,17.3,0.4,25.7c1.1,4.5,3.2,8.6,5.2,12.7
		c-1.4,1.5-2.8,3.1-4.1,4.7c-2.1-2.5-2.9-5.7-4-8.7C542.6,538.5,543.2,525.9,545.7,514.1z"/>
	<path class="st9" d="M146.2,514.7c3.5,0.3,6.8,1.5,10.2,2.4c17.4,4.9,34.2,13.2,47.5,25.6c-2.1,0.4-4.2,0.8-6.3,1.3
		c-7.2-7.9-16.5-13.5-26.2-17.8c-8.3-3.6-16.5-7.4-25.2-9.9C146.2,515.9,146.2,515.1,146.2,514.7z"/>
	<path class="st7" d="M549,515.7c3.4,1.6,7,2.9,10.6,4.1c0.9,8.5,1.8,17,3.1,25.4c-2.8,2.8-5.4,5.9-8,8.9c-2-4.1-4.2-8.2-5.2-12.7
		C547.2,533,547.5,524.2,549,515.7z"/>
	<path class="st9" d="M488.9,519.4c0.7,0.1,1.3,0.1,2,0.2c-0.1,1.1-0.2,2.1-0.4,3.2c-2,8.1-3.3,16.4-3.5,24.7
		c-0.1,10.2,2.1,20.3,5.1,30c3.4,10.5,8,20.7,13.9,30.1c-1.9,1.9-3.7,3.7-5.6,5.6c-8.6-15.1-14.3-32-16.3-49.3
		C482.2,548.9,484.2,533.7,488.9,519.4z"/>
	<path class="st11" d="M559.5,519.9c1.8,0.6,3.5,1,5.3,1.5c13.4,4.2,27.8,6.4,39.8,14.2c-5.3-1-10.7-1-15.8,0.6
		c-4.3,1.4-9.1,3.1-11.7,7.2c-2,3.7-2.4,8.1-4.2,11.9c-1,2.2-2.2,4.6-4.3,6c-2.2,1.4-5.4-0.4-5.8-2.9c-0.4-2.2,0-4.4,0.1-6.6
		c0.2-2.2,0-4.4-0.4-6.6C561.3,536.8,560.4,528.3,559.5,519.9z"/>
	<path class="st9" d="M122.1,530.3c6.2,1.3,12.3,2.7,18.4,4.4c10.3,3,20.1,7.8,28.9,14c0,0.2,0.1,0.6,0.1,0.8
		c-1.9,0.3-3.8,0.7-5.7,1c-0.9-0.2-1.7-0.6-2.4-1.2c-6.7-5.4-14.4-9.7-22.5-12.6c-5.7-2.2-11.7-3.2-17.4-5.3
		C121.7,531.2,122,530.6,122.1,530.3z"/>
	<path class="st9" d="M283.2,536.2c1.9-0.1,3.8-0.2,5.7-0.3c-2.6,14.1-7.8,27.8-15.9,39.7c-5.1,7.3-11.3,14-19,18.6
		c-0.4-0.4-0.8-0.9-1.1-1.3c2-1.9,4.2-3.5,6.2-5.4c5.6-5.3,10.1-11.7,13.6-18.6C277.8,558.6,281.3,547.5,283.2,536.2z"/>
	<path class="st9" d="M309.1,536.1c1.6,0.1,3.3,0.2,4.9,0.3c-0.8,12.5-4.8,24.5-10,35.7c-3.3,6.8-7.5,13.3-13.7,17.8
		c-0.4-0.5-0.7-1-1.1-1.5c5.7-5.1,9.4-12,12-19.1C305.2,558.7,308.5,547.6,309.1,536.1z"/>
	<path class="st9" d="M254.5,539.2c1-0.2,2-0.3,3-0.5c0.8-0.1,1.6-0.2,2.4-0.2c-6.5,22-20.5,42.1-40.1,54.4c-0.8,0.8-1.7,0-1.8-0.9
		c9.1-6.3,16.7-14.7,23.1-23.6C247.4,559.7,252.5,549.9,254.5,539.2z"/>
	<path class="st9" d="M106.5,542.9c1.6-1.5,3.8,0,5.6,0.3c10.1,2.3,20.2,5.3,28.7,11.3c-2,0.3-4,0.6-6,0.9
		c-5.7-4.5-12.4-7.4-19.3-9.4C112.5,545,109.3,544.5,106.5,542.9z"/>
	<path class="st7" d="M572.9,555.3c1.8-3.8,2.2-8.2,4.2-11.9c0.4,7.8,0.9,15.6,0.9,23.4c-8.6,0.5-17.3-0.2-25.6-2.7
		c3.5-4.1,6.9-8.3,10.5-12.3c-0.2,2.2-0.5,4.4-0.1,6.6c0.4,2.5,3.5,4.3,5.8,2.9C570.7,559.9,571.9,557.5,572.9,555.3z"/>
	<path class="st9" d="M217.3,545.9c1.3-0.3,2.7-0.5,4-0.8c0.3,0,1-0.1,1.4-0.2c-5.4,17.5-15.8,33-28.1,46.4c-1,1.1-2.3-0.1-1.4-1.2
		c5.2-6.3,9.4-13.3,13.7-20.2C211.5,562.4,215.3,554.4,217.3,545.9z"/>
	<path class="st7" d="M619.4,547.8c1.4,1.5,2.8,3,4.1,4.6c-1.9,0.6-3.8,1.4-5.7,2.1C618.4,552.2,618.9,550,619.4,547.8z"/>
	<path class="st9" d="M190.2,550.5c1.6-0.3,3.1-0.5,4.7-0.8c0.5-0.1,1.6-0.2,2.1-0.2c-4.3,7-9.5,13.4-15.3,19.2
		c-6.3,6.2-13.6,11.3-20.5,16.8c-1.8,1.4-3.4,3-5.3,4.3c-0.2-0.2-0.7-0.7-0.9-0.9c6.3-6.7,14.3-11.5,20.7-18
		C181.8,564.9,186.4,557.9,190.2,550.5z"/>
	<path class="st9" d="M617.8,554.4c1.9-0.7,3.8-1.5,5.7-2.1c0.5,0.6,1,1.1,1.4,1.7c-2.6,1.2-5.2,2.5-7.9,3.5
		C617.3,556.5,617.6,555.5,617.8,554.4z"/>
	<path class="st7" d="M617.1,557.5c2.7-1,5.3-2.3,7.9-3.5c4.8,5.7,9.4,11.7,14.3,17.3c-1.1,1.1-2.7,2.3-2.2,4.1
		c0.6,1.7,2.9,1.7,3.8,3.1c0.6,1.1-0.3,2.3-1.2,2.9c-3.4,2.7-6.5,5.7-9.5,8.9c-2.3,2.6,1.3,6-0.6,8.8c-1.4,2-3.5,3.3-5.5,4.7
		c-1.9,1.4-4.6,0.7-6.3,2.4c-1.2,1.9-0.6,4.1-0.6,6.2c-0.5,3-3.9,3.6-6.1,4.8c-3.1,1.8-6.6,2.8-10,3.9c2.5-11,5.3-21.9,8-32.8
		c2-0.7,3.9-1.5,5.7-2.6c-0.2-0.6-0.4-1.1-0.6-1.7c-1.4,0.3-2.8,0.6-4.3,0.9C612.5,575.8,614.8,566.7,617.1,557.5z"/>
	<path class="st9" d="M152.4,556.7c1.3-0.2,2.7-0.5,4-0.7c0.5,0,1.6-0.1,2.1-0.2c-7.7,9.5-17.8,16.4-27.7,23.4
		c-0.7,0.4-1.4,0.6-2.2,0.7c0.5-1.8,2.3-2.8,3.6-3.9c4.6-3.6,9.5-6.9,13.6-11.1C148.3,562.4,150.4,559.6,152.4,556.7z"/>
	<path class="st9" d="M463.2,558.4c0.1-1.1,1.1-1.7,2.2-1.2c0.4,2.7-0.4,5.4-0.4,8.1c-0.6,11.5,1.9,23.1,6.9,33.5
		c4.3,9.2,10.4,17.4,17.1,24.9c-1.4,1.3-2.9,2.5-4.3,3.7c-10.2-11.3-18.8-24.6-21.9-39.7C460.8,578.1,461.4,568,463.2,558.4z"/>
	<path class="st9" d="M548.7,568.5c1.2-1.5,2.5-2.9,3.7-4.4c8.3,2.5,17,3.2,25.6,2.7c0,1.4,0,2.8,0,4.2
		C568.2,572.2,558,572.1,548.7,568.5z"/>
	<path class="st7" d="M525.7,596c7.7-9.2,15.2-18.4,23-27.5c9.3,3.6,19.5,3.7,29.3,2.5c-0.2,10.4-1.1,20.8-2.3,31.1
		c0-0.9,0.1-1.9,0.1-2.8C559.1,603.1,541.8,600.6,525.7,596z"/>
	<path class="st9" d="M610.2,585c1.4-0.4,2.8-0.7,4.3-0.9c0.2,0.6,0.4,1.1,0.6,1.7c-1.8,1-3.8,1.8-5.7,2.6
		C609.6,587.3,609.9,586.2,610.2,585z"/>
	<path class="st9" d="M525.7,596c16.1,4.6,33.4,7.1,50,3.3c0,0.9,0,1.8-0.1,2.8c0,0.3-0.1,0.9-0.2,1.2c-10.3,3-21.3,2.9-31.9,1.9
		c-7.3-0.8-14.6-2.3-21.6-4.6C523.2,599,524.4,597.5,525.7,596z"/>
	<path class="st7" d="M504,619.7c6.2-6.2,12.2-12.5,17.9-19.2c7,2.3,14.3,3.8,21.6,4.6c10.6,1.1,21.6,1.1,31.9-1.9
		c-2,15.3-4.7,30.4-7.5,45.5c-4.9,0.6-9.5-2.6-14.3-1.5c-3.5,0.7-4.6,4.8-7.7,6c-3.2,0.8-5.8-2.2-9-1.8c-3.7,0-5.5,4.2-9.1,4.5
		c-5.3,0.6-10.3-2-15.4-3.1c-9.9-2.5-19.4-7.5-26.4-15c4.3-4.8,9-9.3,13.6-13.8c11.3,4.7,23.4,7.9,35.7,8.6
		c11.1,0.6,22.5-0.9,32.7-5.6c-0.2-0.7-0.4-1.4-0.6-2.1c-5.9,2-12.1,3.3-18.4,3.4C533.6,628.7,518,626.1,504,619.7z"/>
	<path class="st12" d="M779.9,620c1-1.6,1.2-4.1,3.3-4.8c0.7-0.4,1.6,0.2,2.1,0.8c1.1,1.6,0,4,1.4,5.5c1.2,0.9,2.9,1.4,3.4,2.9
		c0.6,2.1,0.9,4.2,1.6,6.2c0.7,1.8,0.3,3.8,0.6,5.7c0.6,1.7,2.7,2.4,3.2,4.2c0.4,1.5,0.5,3,0.9,4.5c2.3,0.4,4.3,2,4.7,4.4
		c0.6,4,1.5,8.1,0.9,12.2c1.5,1.2,2.2,3.2,1.3,5c-1.3,2.7-1.3,5.9-0.1,8.7c1,1.1,2.4-0.1,3.6-0.3c1-0.4,1.9,0.6,2.1,1.5
		c0.6,6.6-1.4,13-2.5,19.4c-0.2,0.6,0.1,1.8,1,1.7c2.2-0.3,3.9-2.8,6.3-2.5c1.2,1,1.3,2.7,1.5,4.2c0.3,3.5-1.6,6.6-2.6,9.9
		c-0.6,2-1.7,3.9-2.7,5.7c0.8,1.8,2.8,1.4,4.3,1c1.1-0.5,2.3,0.6,2,1.8c-0.8,6.2-3.4,12-6.1,17.6c-0.4,0.9-0.9,2-0.4,3.1
		c1.2,1.9,4.2,1.4,5.3,3.4c0.9,2-0.2,4.1-1.2,5.8c-2,3-4.8,5.5-7.3,8.2c-1.4,1.6-3.4,3.2-3.4,5.5c0.2,1.4,1.7,1.7,2.7,2.4
		c2.1,1.1,2,4.1,0.6,5.6c-1.9,2-4.4,3.3-6.4,5.2c-2.1,2-4.7,3.7-6,6.4c-0.4,1.4,1.5,1.4,2.3,2c1.9,0.8,1.8,3.6,0.3,4.8
		c-4.7,3.5-9.1,7.4-12.7,12c1.2,0.4,2.7,0.9,3.1,2.3c0.3,1.8-1.6,2.9-2.9,3.7c-3,1.7-6.2,3.2-8.7,5.7c-2.3,2.1-4.2,4.6-6.2,6.9
		l0.6,0.7c-18.5,5.2-37.1,10.2-55.6,15.4c-5.6,0.3-11.2-0.9-16.6-2.2c0.6-7.7,1.8-15.2,3-22.8c11.2,3.1,23.1,2.8,34.2-0.1
		c10.5-2.7,20.5-7.3,29.9-12.5c1.3-0.8,2.8-1.4,3.9-2.6c0.2-1.4-1.3-1.7-2.2-1c-10.9,5.5-22.5,9.9-34.6,12.2
		c-10,2-20.6,1.6-30.3-1.6c1.2-6.9,2.5-13.8,4.4-20.5c0,0.3-0.1,0.8-0.2,1c11.9,0.3,24.1-0.3,35.6-3.6c14.4-4.1,27.9-10.7,40.6-18.5
		c1.9-1.3,4.1-2.3,5.5-4.2c-1.4-1.8-3.2-0.1-4.6,0.6c-10.3,5.9-21.3,10.7-32.6,14.5c-13.8,4.6-28.5,6.7-43,5.7
		c2.8-9.2,7-18,11.8-26.4c10.5,1.7,21.3,0.6,31.4-2.7c9.4-3.1,18.3-7.4,26.8-12.2c4.9-2.9,9.7-5.8,14.1-9.3
		c-0.5-0.5-1.2-1.8-2.1-1.1c-9.1,5.8-18.9,10.3-28.9,14.3c-8.8,3.5-18,6.3-27.5,6.3c-3.6,0.1-7.1-0.2-10.7-0.7
		c4.9-7.9,10.2-15.5,15.4-23.1c10.1,0.8,20.3-0.9,29.6-4.9c9.9-4.1,18.8-10.1,27.6-16.1c0-0.4-0.1-1.2-0.1-1.6
		c-0.9,0.1-1.8,0.2-2.5,0.7c-9.9,6-20.1,11.6-31.3,14.6c-6.4,1.8-13.1,2.4-19.8,2.3c4.9-7.3,9.7-14.7,13.9-22.5
		c6.4-0.8,12.7-3.5,17.5-7.8c6.3-5.5,10.8-12.6,15.7-19.3c0.5-0.9,1.8-2,0.3-2.7c-1.9,1.2-3,3.3-4.5,4.9
		c-4.4,5.1-8.8,10.3-14.2,14.4c-3.4,2.6-7.6,4.3-11.9,4.7c6.7-13.9,11.8-28.7,14.6-43.9c0.5-1.9-2.1-1.5-2.2,0.1
		c-5.9,17.5-12.3,35-21.6,51c-3.5-6.6-6.1-13.8-7.1-21.2c-1-6.6-0.2-13.2-0.6-19.8c-0.3-0.1-1-0.3-1.3-0.4
		c-0.7,5.2-0.9,10.5-1.2,15.7c-0.3,10.8,2.1,21.6,6.9,31.3c-4.4,6.9-9.4,13.4-14.3,20c-3.3-4.3-7.2-8.2-9.9-13
		c-5.9-9.5-6.6-21.1-7.5-31.9c-0.6-6.3-0.4-12.6-0.7-18.9c-0.4,0-1.3,0-1.8,0c-0.9,7.6-0.7,15.2-0.7,22.8c0.4,9.5,0.5,19.4,4.8,28.1
		c3.1,6.4,7.8,11.8,12.4,17.2c-4.7,6.1-9.5,12.2-13.9,18.6c-2.4-2.4-5.2-4.3-7.4-6.9c-8.1-8.8-13.8-19.9-15.9-31.8
		c-1.9-10.2-1.7-20.7-3-31c0.2-1.5-2.4-1.5-2.2,0c0.6,11.7-0.1,23.6,2.1,35.2c2.7,15.2,11,29.5,23.3,38.9
		c-5.3,8.1-10,16.7-13.3,25.9c-7.2-5.5-12.6-13-17.3-20.6c-5.8-9.5-9-20.2-10.8-31.1c-0.7-3.6-1-7.3-1.7-10.9c0-1-1.1-1.1-1.9-0.9
		c-0.7,0.7-0.5,1.7-0.5,2.6c0.9,10.6,2,21.2,5.5,31.3c3,8.7,7.9,16.6,13.5,23.8c3.3,4.2,7,8.2,11.3,11.4c-2.5,8.1-4.1,16.4-5.5,24.8
		c-14.3-9.5-24.6-24.4-29.7-40.6c-1.7-5.1-2.5-10.4-3.2-15.7c-0.9,0-2.4-0.2-2.2,1.1c0.3,8.4,1.7,16.8,4.5,24.7
		c3,8.5,7.7,16.3,13.8,22.9c4.8,5.3,10.2,9.9,15.8,14.4c-0.8,5.2-1.5,10.4-2.2,15.7c-13.9-3.9-26.5-12.4-35.1-24
		c-1.7-2.4-2.1-5.6-0.9-8.3c-2.5-7.7-7.2-14.4-11.7-21.1c-0.5-0.8-1.1-1.6-0.7-2.5c0.3-1.2,1.6-1.6,2.6-2.1c-0.3-4.7-4.4-7.7-5-12.3
		c-0.5-5.1,2.4-9.8,2.3-15c0-3.1,3.6-1.9,5.4-2.8c-1.3-4.6-4.2-8.5-4.8-13.3c-0.3-1.4,0.2-3.3,1.8-3.5c1.5-0.2,3.1-0.3,4.6-0.8
		c-0.4-4.2-2.5-8.2-2.4-12.4c0-2.5,2.3-4.2,4.6-4.4c1.6,0.1,2.1-1.7,2.4-3c0.5-3.1-0.6-6.1,0-9.2c0.4-2.2,0.9-4.6,2.8-6
		c1.8-0.8,3,2.2,4.8,1c2.4-3,2.7-6.9,3-10.6c0.2-2.1,0.5-4.7,2.6-5.7c1.3-0.7,2.7,0.2,3.9,0.8c4.2-1.8,3.7-7,5.7-10.5
		c1.9-3.5,3.4-8.1,7.6-9.4c2,0.4,1.6,2.8,1.7,4.3c4.9-3.9,8.4-9.3,12.8-13.7c2.7-2.6,5.9-4.6,9.1-6.6c2.4-0.8,3.9,2.1,3.9,4.1
		c5.1-0.5,9.5-3.6,13.1-7c1.7-1.4,3.4-3.6,5.9-3.4c2.6,0.4,2.8,3.5,3.1,5.5c5.7-1,10.1-5.1,15.2-7.6c2.2-1.1,4.6-3.2,7.1-1.9
		c2,1.6,0.5,4.4,0.5,6.6c1.6,0.5,3.4,0.1,4.6-1.1c2.3-2.1,4.2-4.8,7.3-5.7c2.2-0.9,4.6-0.3,6.8-0.8c1.5-0.4,1.7-2.1,2.5-3.2
		C775.3,622.1,778.7,622.4,779.9,620z"/>
	<path class="st9" d="M499.6,624c1.5-1.4,2.9-2.9,4.4-4.4c14.1,6.4,29.7,9,45,8.8c6.3-0.1,12.5-1.4,18.4-3.4
		c0.2,0.7,0.4,1.4,0.6,2.1c-10.2,4.7-21.6,6.2-32.7,5.6C523,631.9,510.9,628.7,499.6,624z"/>
	<path class="st10" d="M360.9,641.2c3.6-1.2,6.8,1.8,10.2,2.5c3.8,1.1,7.6-0.7,11-2.1c3.1-1.2,6.7-1.2,9.6,0.5
		c3.9,2,5.6,6.7,9.9,8.2c3.1,1.2,6.3-1.9,9.3-0.2c2,1.5,2.7,4.3,5,5.5c2.1,1.3,4.6,0.3,6.9,0.6c2.7,0.5,4.7,2.4,6.4,4.4
		c5.1,6.3,10.9,12.2,14,19.8c1.6,3.7,2.7,7.6,3.2,11.6c-5.5,1.2-11,2.4-16.5,3.6c-8.9-14.7-21.7-27.6-37.7-34.3
		c-3.7-1.5-7.5-2.6-11.4-3.4c-0.2,0.4-0.7,1.2-0.9,1.6c2.6,1.2,5.5,1.7,8.1,3c7.2,3.2,13.6,8.1,19.5,13.3c6.8,6.1,12.7,13.1,17.2,21
		c-7.6,1.8-15.1,3.8-22.6,6.1c-5.3-8.4-12.4-15.7-20.5-21.4c-6.6-4.6-14-8.2-21.4-11.3c-5-2.1-10.3-3.7-15.6-4.8
		c-0.8-0.2-1.7-0.3-2.5,0c-0.5,0.8-0.1,1.9,0.9,1.9c9.6,2.2,18.2,7.2,26.8,11.8c11.1,5.9,20.6,14.6,27.3,25.2c0.2,0,0.6,0,0.8,0
		c-9.8,3.1-19.2,7.2-28.6,11.4c-5.5-9.1-13.6-16.5-23.1-21.2c-11.4-5.8-24.3-6.7-36.7-8.9c-1-0.3-2.1,0-1.8,1.3
		c4.8,1.8,10.1,2.3,15.1,3.4c9.2,1.8,18.3,4.7,25.9,10.3c6.4,4.6,11.8,10.5,16,17.2c-8.5,3.9-16.9,7.9-25.6,11.3
		c-7-7.6-16.1-13.1-26-15.9c-7-2-14.4-2.5-21.6-3.6c-2-0.3-4-0.9-6.1-0.8c-0.1,0.3-0.3,0.9-0.4,1.2c1.5,0.9,3.3,1.2,5,1.6
		c7.4,1.6,15,2.3,22.1,4.8c8.4,2.9,16,8,22.1,14.5c0.3-0.1,0.8-0.2,1-0.2c-9.9,3.7-20,6.9-30.3,9.5c-3.8-4.8-9.1-8.4-15-9.9
		c-5.9-1.3-12-1-18-0.8c0.3,0.6,0.5,1.4,1.4,1.3c5.7,0.5,11.7,0.3,17.1,2.7c4.1,1.6,7.4,4.5,10.3,7.7c0.3-0.1,0.9-0.2,1.2-0.2
		c-10.6,2.6-21.4,4.3-32.2,5.9c0,0.7,0,1.4,0,2.1c7.1,0,14-1.4,21-2.4c-0.8,2.2-1.8,4.5-3.3,6.3c-3,3.7-7.8,5.3-10.5,9.2
		c-0.4,1.6,1.4,0.4,1.9,0c3.5-3.3,8.1-5.2,11.6-8.6c2.3-2.2,4-4.9,5.4-7.7c-0.5,0.1-1.5,0.2-2,0.3c6.4-1.1,12.8-2.5,19.1-4.1
		c-1.7,4.4-3.9,8.6-6.7,12.4c-3.1,4.2-6.9,7.6-10.6,11.2c-0.7,0.5-1.6,1.8-0.1,2c6.2-5.1,12.4-10.4,17.2-16.9
		c2.4-3.2,4.6-6.7,6.4-10.3c10.9-3,21.6-6.8,32.1-11c-2.1,8.7-6.5,16.6-12.2,23.5c-4.5,5.5-9.8,10.2-14.9,15
		c-0.9,0.7,0.4,2.2,1.2,1.3c6.5-5.1,13-10.4,18.4-16.7c6.2-7.4,10.9-16.1,13.5-25.4l-0.6,0.1c9.5-4.1,18.9-8.4,28.5-12
		c-0.3,10.7-4,21-9.7,30c-5,8-11.6,14.8-18.5,21.2c-1.9,2-4.4,3.4-6,5.7c0.2,0.2,0.7,0.7,0.9,0.9c3.3-1.8,6-4.5,8.9-6.8
		c7.1-6,13.6-12.6,18.7-20.4c6.4-9.8,10.4-21.1,11.4-32.7c8.3-2.9,16.9-5.4,25.5-7.1c-1,11.6-3.5,23.1-7.6,34
		c-3.2,8.7-7.8,17-14.1,23.8c-1.8,2.1-4.1,3.8-5.8,6c0.3,0.9,1.4,1.4,2.1,0.6c13.4-10.2,21.7-25.7,26.7-41.5
		c2.5-7.8,4.1-15.9,4.8-24c5-0.8,10-1.5,15-2.3c0.3,11.6,0.2,23.5-3.2,34.7c-2.1,7-5.7,13.4-10.2,19c-1,1.4-2.5,2.6-3.1,4.2
		c0.3,0.2,0.8,0.7,1,1c3.2-2.3,5.5-5.5,8-8.5c6.1-7.4,9.9-16.5,11.4-25.9c1.4-8.4,1.4-17,1.2-25.5c-0.4,0.1-1.3,0.2-1.7,0.3
		c3-0.6,6.1-1.3,9.1-1.9c7.8,10.4,10.6,24.2,7.8,36.9c-0.6,3.8-2.6,7.2-5.5,9.7c-3.4,3-6.4,6.9-6.9,11.6c-0.6,2.7,0.7,6-1.3,8.3
		c-2,1.9-4.8-0.7-7,0.6c-4,1.9-5.5,6.4-8,9.7c-1.4,1.7-2.1,4.1-4.2,5.2c-1.8,0.6-2.9-1.3-4.1-2.2c-3.6,2.7-6.9,5.9-9.7,9.4
		c-0.8,1-1.8,2.3-3.3,2c-0.6-0.6-0.8-2-1.8-1.7c-2.6,0.5-4.9,2.2-6.4,4.3c-1.5,2-3.7,3.6-6.2,3.7c-1.2,0-1.6-1.2-2.2-1.9
		c-3.2-0.2-6.6,1-8.6,3.6c-1.2,1.4-2.6,3.3-4.7,2.9c-2.2-0.5-0.6-3.6-2.4-4.5c-3.1-1.3-6.4,0.5-9.1,2c-3.4,2.2-7.5,3.2-11.5,3.8
		c-1.8-0.8-0.2-3-0.3-4.5c-2.5,0.1-4.8,0.9-7.1,1.6c-2.5,0.4-5,0.8-7.5,1.3c-1.5,0.2-3.4-1-3.1-2.7c0.2-1.2,1.4-1.7,2.5-1.8
		c-1.6-2.2-4.1-3.6-6.8-3.8c-4-0.3-8.1,0.1-12,1.1c-1.5,0.3-3.2,0.7-4.4-0.4c-1.5-1.3-0.8-3.8-2.3-5.1c-1.8-1.5-4.3-0.8-6.3-0.2
		c-2.6,0.8-5.8,1.5-8.1-0.4c-1.4-1-1.2-2.9-1.6-4.4c-0.3-1.5-1.8-2.4-3.3-2.5c-2.3-0.2-4.5,0.8-6.8,0.5c-1.3-0.1-2.5-0.9-3-2
		c-0.6-1.6,0.7-3.1,0.4-4.6c-0.3-0.9-1.1-1.5-1.9-1.8c-4.3-1.4-8.9-1-13.3-1.3c-1.6-0.4-1.6-2.2-0.8-3.4c0.9-1.3,0-2.8-1.2-3.5
		c-1.7-1.1-3.3-2.3-5.1-3.2c-2.3-1.1-5.2,0.1-7.3-1.6c-1.9-1.6-0.9-4.8-2.7-6.5c-1.6-1.7-4.1-2-6.4-2c-1.8-0.1-3.9,0.2-5.3-1.2
		c-1-0.8-1-2.4-0.3-3.4c1.8-2.8,5.1-4.1,7.6-6.1c2.4-1.8,1-5.6,3.5-7.4c2-1.4,4.3-2.6,5.2-5c1.9-3.7-0.3-7.9,1-11.7
		c0.7-2.2,2.9-3.2,4.2-5c1-1.4,1.8-3.1,3.5-3.9c1.5-0.8,3.5-1.6,3.7-3.6c0.4-2-1.7-3.1-2.9-4.4c-1-0.9-1.1-2.5-0.1-3.4
		c1.1-1.1,2.6-1.5,3.9-2.4c2.8-1.7,5-4.3,7.8-6c0.7-0.3,1.1-0.9,1.2-1.6c-1.1-1.4-3.2-1.1-4.4-2.4c-0.7-0.5-0.8-1.6-0.1-2.2
		c1.5-1.1,3.2-1.8,4.8-2.7c3.2-1.6,5.9-4,8.5-6.4c0.9-0.7,1.3-2.1,0.4-2.9c-0.5-0.8-2.2-1.8-1.1-2.8c3.3-2.5,7.3-4,11.5-4.2
		c1.7-0.1,3.8,0,4.7-1.7c0.7-1.7-1.3-2.9-1.1-4.5c0.1-1,1.2-1.5,2.1-1.5c3.9-0.3,7.9-0.9,11.7-1.9c2.7-0.9,1.9-4.7,4.4-5.9
		c2.1-1,4.6-0.9,6.9-0.8c1.9,0,3.4,1.6,5.3,1.4c2.1-0.6,2.7-3,4-4.5c1.9-1.6,4.5-0.4,6.8-0.3c3.8,0.1,7.3,1.9,11,2.4
		c1.5,0.1,3.3,0.3,4.5-0.9C359,643.7,359.2,641.7,360.9,641.2z"/>
	<path class="st9" d="M739.4,656.3c0.3,0.1,1,0.3,1.3,0.4c0.4,6.6-0.4,13.3,0.6,19.8c1,7.5,3.6,14.6,7.1,21.2
		c-1.1,1.8-2.2,3.7-3.4,5.5c-4.8-9.7-7.1-20.5-6.9-31.3C738.5,666.8,738.8,661.5,739.4,656.3z"/>
	<path class="st9" d="M379.9,659.6c0.2-0.4,0.7-1.2,0.9-1.6c3.9,0.8,7.7,1.8,11.4,3.4c16,6.7,28.8,19.7,37.7,34.3
		c-1.7,0.4-3.4,0.8-5.1,1.2c-4.6-7.9-10.5-14.9-17.2-21c-5.9-5.2-12.3-10-19.5-13.3C385.4,661.3,382.5,660.8,379.9,659.6z"/>
	<path class="st9" d="M710.9,659.5c0.4,0,1.3,0,1.8,0c0.4,6.3,0.2,12.6,0.7,18.9c0.9,10.9,1.5,22.4,7.5,31.9c2.7,4.8,6.6,8.6,9.9,13
		c-1.2,1.5-2.3,2.9-3.5,4.4c-4.6-5.4-9.3-10.8-12.4-17.2c-4.3-8.7-4.3-18.6-4.8-28.1C710.1,674.7,710,667.1,710.9,659.5z"/>
	<path class="st9" d="M342.1,665.4c0.8-0.2,1.7-0.1,2.5,0c5.4,1,10.6,2.7,15.6,4.8c7.5,3.1,14.8,6.6,21.4,11.3
		c8.1,5.7,15.1,13,20.5,21.4c-1.4,0.4-2.8,0.9-4.2,1.4c-0.2,0-0.6,0-0.8,0c-6.7-10.6-16.3-19.3-27.3-25.2
		c-8.6-4.5-17.2-9.6-26.8-11.8C342.1,667.3,341.6,666.2,342.1,665.4z"/>
	<path class="st9" d="M783.9,671.5c1.5-1.6,2.6-3.7,4.5-4.9c1.5,0.7,0.2,1.8-0.3,2.7c-4.9,6.7-9.4,13.8-15.7,19.3
		c-4.8,4.4-11.1,7.1-17.5,7.8c1-1.9,2-3.8,3-5.8c4.3-0.4,8.4-2.1,11.9-4.7C775,681.8,779.5,676.6,783.9,671.5z"/>
	<path class="st9" d="M685,676.6c-0.2-1.5,2.3-1.5,2.2,0c1.3,10.3,1,20.8,3,31c2.2,11.8,7.8,22.9,15.9,31.8c2.2,2.6,5,4.5,7.4,6.9
		c-1.1,1.5-2.1,2.9-3.1,4.5c-12.3-9.4-20.5-23.7-23.3-38.9C685,700.2,685.6,688.3,685,676.6z"/>
	<path class="st9" d="M307.9,686.9c-0.3-1.3,0.8-1.6,1.8-1.3c12.4,2.1,25.3,3.1,36.7,8.9c9.5,4.7,17.6,12.1,23.1,21.2
		c-1.5,0.7-3,1.4-4.5,2.1c-4.2-6.7-9.6-12.6-16-17.2c-7.6-5.6-16.7-8.5-25.9-10.3C317.9,689.2,312.7,688.7,307.9,686.9z"/>
	<path class="st6" d="M925,701.3c26.9-2.5,53.9,3.4,78.7,13.6c21.2,8.5,40.6,20.6,60,32.4c14.2,8.6,28.2,17.7,40.4,29.1
		c5,4.6,9.5,9.6,14.5,14.2c1.6,1.3,2.6,4,0.8,5.6c-2.8,1.6-6.2,1.1-9.2,0.6c-3.9-0.7-7.9-0.9-11.7-1.9c-3.4-1.1-6.9-2-10.2-3.3
		c-2.3-1.1-1.5-3.9-1.5-5.9c0.3-1.7-0.5-3.5-2-4.5c-3.9-2.6-9.2-0.3-13.1-2.9c-1.8-1.1-2.1-3.4-2.7-5.2c-0.9-3.2-3.7-5.4-6.6-6.6
		c-5.4-2.2-11.4-1.5-17-3.1c-4.4-1.2-8.6-3.2-13.2-3.4c-2.8-0.3-6-0.2-8.3-2c-1.6-1.5,0.5-3.4,0.8-5c-0.1-1.2-0.8-2.2-1.7-2.9
		c-4.6-2.5-10-0.7-14.9-0.5c-2.8,0.2-6.1-0.6-7.4-3.3c-1.2-2.2,0.4-4.6,0.6-6.8c-0.3-1.6-1.9-2.5-3.3-3c-2.1-0.7-4.4-1.4-6.6-0.7
		c-2-0.5-4-0.5-5.9-0.1c-4.9,0.2-9.7,1.9-14.6,0.9c-2.4-0.5-3-3-3.6-5.1c-0.6-2.5-3.6-4.1-6-3.2c-1.9,0.5-3.9,2-5.8,0.8
		c-2.2-1.3-0.3-4.8-2.6-6c-2.8-1.3-5.2,1.1-7.4,2.4c-1.4,0.9-3.1,0.9-4.7,0.7c-1.7-0.7-3.4-1.7-5.2-2c-2.3-0.1-4.8,1.6-7,0.2
		c-2.3-1.7-4-4.6-7.2-4.9c-4.8-0.6-9.4,1.6-13.3,4.1c-2.2,0.1-4.3,0.5-6.4,0.8c-6,0.3-11.9-0.9-17.9-0.7c-9.2,0.2-18.3,2.2-26.8,5.5
		c-2.5,0.9-4.7,2.5-7.3,2.9c1.2-2,3.3-3.1,5.3-4.2c11.6-6.2,23.2-12.5,35.4-17.5C901.3,705.5,913.1,702.4,925,701.3z"/>
	<path class="st9" d="M792,702c0.7-0.5,1.6-0.6,2.5-0.7c0,0.4,0.1,1.2,0.1,1.6C785.9,709,777,715,767.1,719
		c-9.3,3.9-19.6,5.7-29.6,4.9c1.1-1.7,2.3-3.3,3.4-5c6.7,0.1,13.4-0.5,19.8-2.3C771.9,713.6,782.1,708,792,702z"/>
	<path class="st9" d="M437.8,702.4c1.1-0.2,2.2-0.4,3.3-0.6c0.4-0.1,1.3-0.2,1.7-0.3c0.2,8.5,0.2,17.1-1.2,25.5
		c-1.4,9.4-5.3,18.5-11.4,25.9c-2.5,2.9-4.8,6.2-8,8.5c-0.3-0.2-0.8-0.7-1-1c0.6-1.7,2.1-2.8,3.1-4.2c4.5-5.6,8.1-12.1,10.2-19
		C438,725.9,438,714,437.8,702.4z"/>
	<path class="st9" d="M416.7,705.8c2-0.4,4-0.8,6-1.1c-0.7,8.1-2.3,16.2-4.8,24c-5,15.8-13.3,31.3-26.7,41.5
		c-0.7,0.8-1.8,0.3-2.1-0.6c1.7-2.2,4-3.8,5.8-6c6.4-6.8,10.9-15.1,14.1-23.8C413.2,728.9,415.8,717.4,416.7,705.8z"/>
	<path class="st9" d="M285.6,708.8c2.1,0,4.1,0.5,6.1,0.8c7.2,1.1,14.5,1.6,21.6,3.6c9.9,2.8,19,8.4,26,15.9c-1.2,0.5-2.5,1-3.7,1.4
		c-0.3,0.1-0.8,0.2-1,0.2c-6.1-6.5-13.7-11.6-22.1-14.5c-7.2-2.5-14.8-3.2-22.1-4.8c-1.7-0.4-3.5-0.6-5-1.6
		C285.3,709.7,285.5,709.1,285.6,708.8z"/>
	<path class="st9" d="M385.5,715c1.9-0.7,3.8-1.4,5.7-2.1c-1,11.6-5,22.9-11.4,32.7c-5,7.8-11.6,14.4-18.7,20.4
		c-2.9,2.3-5.6,5-8.9,6.8c-0.2-0.2-0.7-0.7-0.9-0.9c1.5-2.3,4-3.7,6-5.7c6.9-6.3,13.5-13.2,18.5-21.2
		C381.4,736,385.2,725.6,385.5,715z"/>
	<path class="st9" d="M665.4,713.1c0.7-0.2,1.8-0.1,1.9,0.9c0.7,3.6,1,7.3,1.7,10.9c1.8,10.9,5,21.6,10.8,31.1
		c4.7,7.7,10.1,15.2,17.3,20.6c-0.7,1.8-1.3,3.7-1.8,5.6c-4.3-3.2-8-7.2-11.3-11.4c-5.6-7.2-10.6-15.1-13.5-23.8
		c-3.5-10.1-4.6-20.8-5.5-31.3C664.9,714.7,664.7,713.8,665.4,713.1z"/>
	<path class="st12" d="M908,723.3c3.9-2.4,8.6-4.6,13.3-4.1c3.1,0.4,4.8,3.2,7.2,4.9c2.2,1.4,4.7-0.3,7-0.2c1.9,0.3,3.5,1.3,5.2,2
		c-8.1,5.8-14.7,13.6-20.2,21.9c-8.2,12.5-14.6,26.2-18.9,40.4c0.4-0.1,1.3-0.2,1.7-0.2c-9.6,1.6-19.2,3.4-28.8,5.3
		C877,767,889.7,742.2,908,723.3z"/>
	<path class="st9" d="M945.5,725.2c2.3-1.3,4.6-3.7,7.4-2.4c-7.8,4.8-15,10.6-20.7,17.8c-11,13.7-18.7,29.8-23.8,46.6
		c-1.7,0.3-3.4,0.6-5.1,0.9c-0.4,0.1-1.3,0.2-1.7,0.2c4.4-14.3,10.8-27.9,18.9-40.4c5.5-8.3,12.1-16.1,20.2-21.9
		C942.3,726.2,944.1,726.2,945.5,725.2z"/>
	<path class="st9" d="M901.6,724.2c2.1-0.3,4.3-0.7,6.4-0.8c-18.3,18.9-31,43.7-33.6,70c-1.5,0.3-3,0.6-4.5,0.9
		c-0.5,0.1-1.5,0.2-2,0.3C870.6,768.2,882.6,742.8,901.6,724.2z"/>
	<path class="st12" d="M932.2,740.6c5.7-7.2,12.9-13,20.7-17.8c2.4,1.1,0.4,4.7,2.6,6c1.9,1.2,4-0.3,5.8-0.8c2.5-0.9,5.4,0.7,6,3.2
		c0.6,2,1.1,4.6,3.6,5.1c4.9,0.9,9.7-0.8,14.6-0.9c-7.1,4.6-14,9.7-19.7,16c-8,8.8-14.2,19.1-19.4,29.8c-12.7,1.9-25.4,4-38.2,6.1
		C913.5,770.5,921.2,754.3,932.2,740.6z"/>
	<path class="st12" d="M856.8,729c8.6-3.3,17.7-5.3,26.8-5.5c6-0.2,11.9,1,17.9,0.7c-19,18.7-31,44.1-33.7,70.5
		c0.5-0.1,1.5-0.2,2-0.3c-16.7,3.4-33.2,7.3-49.7,11.5c-1.3-7.4,0-15.1,3.4-21.7c2.2-4.3,4.2-8.8,5.5-13.5c1.2-4.4,3.3-9,1.8-13.6
		c-0.5-1.5-0.8-3.7,1-4.4c2.3-0.8,2.5,3.5,4.8,2.3c1.9-1.7,3-4.2,3.7-6.6c1-3.5,0.2-7.2,1.2-10.7c0.8-1.5,2.5-2.2,4-2.9
		c1.5-0.6,2.6-1.7,3.8-2.8l0.1,0C852.2,731.5,854.4,729.9,856.8,729z"/>
	<path class="st9" d="M351.6,729.3c1.8-0.7,3.5-1.5,5.3-2.3l0.6-0.1c-2.6,9.3-7.2,18-13.5,25.4c-5.4,6.3-11.9,11.6-18.4,16.7
		c-0.8,0.9-2.1-0.6-1.2-1.3c5.1-4.8,10.4-9.5,14.9-15C345.1,745.9,349.5,737.9,351.6,729.3z"/>
	<path class="st9" d="M760.2,741.4c10-4,19.8-8.5,28.9-14.3c0.9-0.8,1.5,0.5,2.1,1.1c-4.4,3.5-9.3,6.5-14.1,9.3
		c-8.6,4.8-17.5,9.1-26.8,12.2c-10.1,3.3-20.9,4.4-31.4,2.7c1.1-1.8,2.2-3.7,3.3-5.5c3.5,0.5,7.1,0.8,10.7,0.7
		C742.2,747.7,751.5,744.9,760.2,741.4z"/>
	<path class="st9" d="M272.3,729.5c6-0.2,12.1-0.5,18,0.8c5.9,1.5,11.2,5.1,15,9.9c-1,0.2-2,0.5-3,0.8c-0.3,0.1-0.9,0.2-1.2,0.2
		c-2.9-3.2-6.3-6.1-10.3-7.7c-5.4-2.4-11.4-2.1-17.1-2.7C272.8,730.9,272.6,730.1,272.3,729.5z"/>
	<path class="st9" d="M985.5,735.3c2-0.3,4-0.4,5.9,0.1c-7.1,4.9-14.1,10-19.8,16.5c-7.4,8.4-12.8,18.3-18,28.1
		c-2.4,0.3-4.8,0.6-7.2,1c5.1-10.7,11.3-21,19.4-29.8C971.6,745,978.4,739.9,985.5,735.3z"/>
	<path class="st12" d="M991.5,735.5c2.2-0.8,4.5-0.1,6.6,0.7c1.4,0.5,3,1.4,3.3,3c-0.2,2.3-1.8,4.6-0.6,6.8c1.3,2.7,4.6,3.6,7.4,3.3
		c4.9-0.2,10.3-2,14.9,0.5c-7.6,3.2-15.1,6.9-21.5,12c-5.8,4.5-10.9,9.9-15,16c1.7,0.1,3.4,0.2,5.1,0.3c-12.7-0.5-25.4,0.4-38,2
		c5.2-9.9,10.6-19.7,18-28.1C977.3,745.5,984.4,740.3,991.5,735.5z"/>
	<path class="st9" d="M313.3,741.9c2.1-0.5,4.1-1.1,6.2-1.7c-1.8,3.6-3.9,7.1-6.4,10.3c-4.8,6.5-11,11.8-17.2,16.9
		c-1.5-0.1-0.6-1.5,0.1-2c3.7-3.6,7.5-7.1,10.6-11.2C309.4,750.6,311.6,746.4,313.3,741.9z"/>
	<path class="st9" d="M291.1,746.6c1-0.2,2-0.4,3-0.6c0.5-0.1,1.5-0.2,2-0.3c-1.4,2.8-3.1,5.5-5.4,7.7c-3.4,3.4-8,5.3-11.6,8.6
		c-0.5,0.5-2.2,1.7-1.9,0c2.7-3.9,7.5-5.5,10.5-9.2C289.4,751,290.4,748.8,291.1,746.6z"/>
	<path class="st9" d="M1001.6,761.9c6.5-5.2,13.9-8.8,21.5-12c1,0.7,1.6,1.7,1.7,2.9c-12.6,5.5-23.9,14.1-31.7,25.5
		c-0.4,0-1.1-0.1-1.5-0.1c-1.7-0.1-3.4-0.2-5.1-0.3C990.7,771.8,995.8,766.4,1001.6,761.9z"/>
	<path class="st9" d="M654.7,751.8c-0.2-1.4,1.3-1.1,2.2-1.1c0.8,5.3,1.6,10.6,3.2,15.7c5.1,16.2,15.4,31.1,29.7,40.6
		c-0.4,2.3-0.7,4.6-1.1,7c-5.5-4.5-11-9.1-15.8-14.4c-6-6.6-10.8-14.5-13.8-22.9C656.5,768.6,655,760.2,654.7,751.8z"/>
	<path class="st12" d="M993.1,778.3c7.7-11.4,19.1-20,31.7-25.5c-0.3,1.7-2.4,3.5-0.8,5c2.3,1.9,5.5,1.7,8.3,2
		c4.6,0.2,8.8,2.2,13.2,3.4c5.6,1.6,11.6,0.9,17,3.1c3,1.2,5.7,3.4,6.6,6.6c0.6,1.8,0.9,4.1,2.7,5.2c3.9,2.7,9.2,0.3,13.1,2.9
		c1.5,0.9,2.3,2.7,2,4.5c0,2-0.8,4.8,1.5,5.9c3.3,1.3,6.8,2.2,10.2,3.3c-1.8,2-4.2,3.3-5.8,5.5c-1.2,2-1.7,4.8-4.2,5.5
		c-3.2,1-5.1,3.9-6.4,6.7c-1.2,2.2,1.5,4.2,0.4,6.4c-1.1,2.4-3.9,3.1-6,4.2c-4.9,2.2-8.1,7.2-8.7,12.5c-0.1,1.6-0.9,3.3-2.5,3.9
		c-2.2,0.9-4.5,1.4-6.5,2.7c-2,1.3-4.6,2.2-5.8,4.5c-1.6,3.1,2.2,6.4,0.3,9.4c-2.1,2.9-6,2-9.1,2.8c-3.1,0.9-6.6,2.2-8.3,5.2
		c-0.9,1.5-0.4,3.3-0.8,5c-0.6,1.4-2.1,2-3.4,2.3c-3.8,0.8-7.8,0.8-11.7,0.5c-2.4-0.1-5.3,0.2-6.7,2.4c-1.5,2,0.5,4.6-0.5,6.8
		c-0.9,1.4-2.8,1.2-4.2,1c-5.7-1.3-11.7-1.2-17.3,0.1c-1.9,0.4-1.3,3.1-2.8,4c-1.4,0.9-3.3,0.5-4.7-0.2c-2.4-1.2-4.5-3.1-7.2-3.6
		c-3.3-1-6.6,0.1-9.8,0.6c-1,0.1-2,0.6-2.2,1.6c-0.4,1.3-0.2,3.3-1.8,3.9c-2.3,0.5-4.1-1.2-6.1-2c-4-1.9-7.9-4.2-12.2-5
		c-1.4-0.2-3.2-0.6-4.3,0.6c-0.9,1.3,0.4,3.2-0.6,4.5c-0.7,1-2.1,0.4-2.9,0c-4.8-2.5-9.5-5-14.3-7.6c-1.1-0.6-2.5-1-3.6-0.2
		c-1.3,1.3-1.3,3.7-3.2,4.5c-2.4,1.1-4.8-0.7-6.3-2.5c-3.1-3.8-7.7-6.3-12.4-7.3c-2.8-0.2-2.9,3.5-5.1,4.4c-2,0.5-3.4-1.5-4-3.1
		c-0.9-2.3-2.6-4.2-4.4-6c-2.3-2.3-4-5.3-7-6.9c-1.7-1-4-0.5-5.1,1.1c-0.9,1-1.6,2.5-3.2,2.4c-1,0-1.6-0.9-2.1-1.6
		c-1.9-2.9-5.1-4.7-6.8-7.6c-2.4-4-5.4-7.6-8.1-11.3c-3.2-4.5-5-10-9.3-13.6c-2.6-2.4-6.1-3.5-8.9-5.7c-3.6-2.8-6.6-6.4-8.8-10.5
		c13.2-3.5,26.5-6.6,39.7-9.7c4.9,17,11.9,34.1,24.5,46.9c6.8,6.9,14.7,12.8,23.2,17.5c1.4,1.2,3.2-1.3,1.5-2.1
		c-9.9-6.6-19-14.4-25.9-24.1c-8.4-11.9-13.2-25.7-17.3-39.5c5.9-1.3,11.9-2.6,17.9-3.9c3.7,9.7,9,18.7,15.6,26.7
		c5.8,7,12.5,13.1,19.6,18.8c12.1,9.5,24.5,19,38.8,24.9c1,0.4,2.8,1.1,3.2-0.4c0.4-1.1-1-1.6-1.7-2c-9.9-4.7-18.9-11.2-27.5-17.9
		c-12.9-10.1-25.5-21.3-33.7-35.7c-2.9-4.9-5.1-10.2-7.1-15.6c-0.2,0-0.7-0.1-0.9-0.1c10.4-2.1,20.9-4.2,31.3-6.2
		c5.5,16.6,16.4,31.1,29.7,42.3c13.5,11.4,29.4,19.7,45.8,25.8c1.7,1.1,2.9-1.6,1-2.1c-8.2-3.8-16.4-7.9-24.1-12.7
		c-15.5-9.6-29.9-22-38.8-38.1c-3-5.2-4.9-10.9-6.8-16.6c9.5-1.7,19-3.5,28.5-4.9c8.5,15.3,21.5,28,36.7,36.5
		c11.8,6.6,24.5,11.3,37,16.4c1.4,0.8,2.6-1.7,0.9-2.1c-13-6.7-27-11.7-39.2-19.9c-11.9-7.9-21.6-19.1-28.1-31.8
		c-0.5,0-1.4,0.1-1.9,0.2c12-1.4,24.2-1.9,36.3-0.6c-0.6,0-1.8-0.1-2.4-0.1c2.3,2.6,4.4,5.3,6.9,7.7c12.2,9.8,26.1,17,40.3,23.5
		c2,0.8,3.9,2.2,6.2,2.4c0.1-0.3,0.2-0.9,0.3-1.2c-6.8-4.2-14.2-7.3-21-11.4c-9.2-5.3-17.5-12-24.3-20.2c12.9,1.6,25.8,4.1,38.8,4.4
		c-1.6-0.1-3.2-0.1-4.9-0.1c3.1,4.4,7.5,7.6,12.4,9.8c3.9,1.8,7.9,3.5,11.9,5.2c0.2-0.5,0.4-1,0.6-1.5c-6.7-4.1-15-6.4-19.3-13.4
		c11.4,0.2,22.8-1,33.9-3.8c1.6-0.2,2-2.5,0.8-3.4c-0.8-0.7-1.8-0.4-2.7-0.2c-14.8,2.9-30.1,3.2-45.1,1.1c3.1-3.8,6.8-6.9,11.1-9.3
		c4.6-2.5,9.6-4.2,14.4-6.4c0-0.4,0-1.2,0-1.5c-3.8,0.6-7.3,2.3-10.9,3.4c-7.8,2.6-15.1,6.9-20.8,12.9
		C1016.8,781.2,1005.1,778.9,993.1,778.3z"/>
	<path class="st9" d="M782.7,758.7c1.4-0.7,3.2-2.4,4.6-0.6c-1.4,1.9-3.6,2.9-5.5,4.2c-12.7,7.8-26.2,14.4-40.6,18.5
		c-11.5,3.3-23.7,3.9-35.6,3.6c0-0.3,0.1-0.8,0.2-1c0.4-1.5,0.8-3,1.3-4.5c14.5,1.1,29.2-1.1,43-5.7
		C761.3,769.4,772.3,764.7,782.7,758.7z"/>
	<path class="st9" d="M1049.4,770.1c3.6-1.1,7.1-2.8,10.9-3.4c0,0.4,0,1.2,0,1.5c-4.8,2.1-9.8,3.8-14.4,6.4c-4.3,2.3-8,5.5-11.1,9.3
		c-2.1-0.3-4.1-0.5-6.2-0.8C1034.3,777,1041.6,772.7,1049.4,770.1z"/>
	<path class="st9" d="M1000.2,784.8c0.6,0,1.8,0.1,2.4,0.1c2,0.2,4,0.5,6,0.8c6.8,8.1,15.1,14.9,24.3,20.2c6.8,4.1,14.3,7.2,21,11.4
		c-0.1,0.3-0.2,0.9-0.3,1.2c-2.3-0.2-4.2-1.6-6.2-2.4c-14.1-6.5-28.1-13.7-40.3-23.5C1004.6,790.1,1002.4,787.4,1000.2,784.8z"/>
	<path class="st9" d="M960.8,786.3c1.8-0.3,3.6-0.5,5.4-0.7c0.5,0,1.4-0.1,1.9-0.2c6.5,12.7,16.2,23.9,28.1,31.8
		c12.2,8.2,26.2,13.2,39.2,19.9c1.7,0.5,0.5,3-0.9,2.1c-12.5-5.1-25.2-9.8-37-16.4C982.2,814.3,969.3,801.6,960.8,786.3z"/>
	<path class="st9" d="M1042.5,790c1.6,0,3.2,0,4.9,0.1c0.2,0,0.5,0,0.7,0c4.3,7,12.6,9.4,19.3,13.4c-0.2,0.5-0.4,1-0.6,1.5
		c-4-1.7-8-3.4-11.9-5.2C1050,797.6,1045.6,794.4,1042.5,790z"/>
	<path class="st9" d="M925.3,792.5c2.3-0.4,4.6-0.9,6.9-1.3c1.9,5.7,3.8,11.4,6.8,16.6c8.9,16.2,23.3,28.5,38.8,38.1
		c7.7,4.8,15.9,8.9,24.1,12.7c1.9,0.5,0.6,3.2-1,2.1c-16.5-6.2-32.3-14.5-45.8-25.8C941.7,823.6,930.8,809.1,925.3,792.5z"/>
	<path class="st9" d="M766.2,793.3c0.9-0.7,2.4-0.4,2.2,1c-1.1,1.2-2.6,1.8-3.9,2.6c-9.5,5.3-19.4,9.8-29.9,12.5
		c-11.2,2.9-23.1,3.2-34.2,0.1c0.3-1.9,0.6-3.8,0.9-5.6c9.7,3.2,20.3,3.6,30.3,1.6C743.7,803.2,755.3,798.8,766.2,793.3z"/>
	<path class="st9" d="M887.8,800c2.1-0.4,4.1-0.9,6.2-1.3c0.2,0,0.7,0.1,0.9,0.1c2,5.4,4.2,10.6,7.1,15.6
		c8.2,14.4,20.8,25.6,33.7,35.7c8.6,6.8,17.6,13.2,27.5,17.9c0.7,0.5,2.1,0.9,1.7,2c-0.4,1.5-2.2,0.9-3.2,0.4
		c-14.3-6-26.7-15.5-38.8-24.9c-7.1-5.7-13.8-11.8-19.6-18.8C896.8,818.7,891.5,809.7,887.8,800z"/>
	<path class="st9" d="M863.8,805.3c2-0.5,4.1-0.9,6.1-1.4c4.1,13.8,8.9,27.7,17.3,39.5c6.8,9.7,16,17.6,25.9,24.1
		c1.7,0.8-0.2,3.3-1.5,2.1c-8.5-4.7-16.4-10.5-23.2-17.5C875.7,839.4,868.8,822.3,863.8,805.3z"/>
	<path class="st11" d="M755.3,843.4c2.7-1.2,5.8-1.9,8.7-1c2.4,0.8,4.4,3.1,7.2,2.8c3.3,0.1,5.4-3,8.6-3.4c3.6,0.1,5.3,4.1,8.6,4.9
		c3.2,0.7,6.3-0.7,9.2-1.9c3.7-1.8,8.2-2.2,12-0.5c5,2.2,7.3,7.9,12.2,10.1c3.6,1.8,7.7,1.1,11.5,1.7c1.8,0.3,3.9,1.5,4.1,3.6
		c0.2,1.2-0.9,2-1.5,2.9c0.5,1.3,1.9,2,3.1,2.6c2.7,1.3,5.7,1.5,8.5,2c3.1,0.5,6,1.9,9,2.7c1.6,0.4,3.3,1.4,3.7,3.2
		c0.3,2,0.1,4.4,1.5,6.1c1.1,1.1,2.7,0.8,4,0.9c2.5,0.1,4.6,1.5,6.7,2.7c1.6,0.9,3.4,2.3,3.4,4.4c0,2.2-0.9,5,1.1,6.6
		c3.5,2.7,7,5.3,10.9,7.5c0.8,0.5,1.6,1.1,1.8,2c0.2,2.5-3.8,2.6-3.5,5.2c0.2,1.9,2.1,2.9,3.6,3.7c4.5,2.4,8.3,6.1,10.5,10.7
		c0.3,1.4-1.4,1.6-2.3,2.1c-1.2,0.3-2.1,1.8-1.6,3.1c1.8,4.7,4,9.4,7.2,13.3c0.9,1.4,2.5,2.7,2.5,4.4c-1.1,2.2-4,1.2-5.9,1.1
		c-1.3-0.1-1.9,1.3-1.1,2.3c2.5,3.9,3.6,8.5,6.4,12.2c1,1.4,2.6,3,2,4.9c-0.8,1.9-3.2,2-4.8,2.6c-1.8,0.5-2.9,2.7-2.4,4.5
		c0.6,2.2,2.8,3.4,3.3,5.7c0.5,2.1,0.4,4.4,1.4,6.4c1,2.1,1.4,4.6,0.5,6.8c-1.5,3.8-4.7,7.1-4.3,11.5c-0.1,2.9,2.1,5,3.2,7.4
		c1.4,2.9-1.6,5.9-0.3,8.9c1.1,2.7,3.2,5,4.3,7.8c0.7,1.7,1.5,4,0,5.6c-1.7,1.6-4.1,0.8-5.9-0.1c-2.8-1.3-6.1-3-9.3-1.8
		c-2.9,1-3.3,5-6.4,5.6c-2.5,0.3-4.6-1.5-7-2c-2.1-0.4-4.3,0.2-6.4,0.4c-1.4,0.2-3.1,0.2-4.1,1.3c-1.4,1.3-0.1,3.6-1.5,4.8
		c-1,0.8-2.4,0.4-3.4,0c-3.9-2-7.9-3.8-12.2-4.8c-1.4-0.3-3.3-0.3-4.1,1.2c-0.7,1.5-0.3,3.6-1.7,4.8c-1.7,1.4-4.2,0.8-5.9-0.3
		c-2.4-1.4-4.6-3.9-7.6-3.5c-3.1,0.4-3.3,4.8-6.4,5.2c-3.3,0.5-6.2-1.7-8.5-3.8c-1.7-1.6-3.8-3.4-6.4-3.1c-2.7,0.4-3.1,3.9-5.7,4.4
		c-1.8,0.2-3.3-0.9-4.6-2c-3.2-2.7-6.8-4.7-10.4-6.7c-2.9-1.7-6.7-2.1-9.5,0.1c0.5,1.1,1,2.4,0.3,3.5c-0.9,1.6-3.2,1.8-4.6,0.9
		c-1.7-1.1-3.3-2.5-5-3.6c-3.2-1.9-5.4-5.2-8.9-6.8c-0.4,1.2-0.7,2.4-1.1,3.7c-0.4,1.1-1.9,0.9-2.6,0.2c-3-2.5-6.3-4.9-8.5-8.3
		c-2.1-3.2-4.5-6.8-8.5-7.7c-1.8-0.6-2.6,1.3-3.4,2.5c-0.6,1.3-2.4,1.2-3.3,0.4c-1.6-1.2-1.9-3.4-2.4-5.3c-0.9-3.7-4-6.5-7.5-7.8
		c-1.1,1.7-3.4,1.2-4.6-0.1c-3.5-3-2.6-8.3-5.6-11.6c-1-1.1-2.4-3.2-3.9-1.8c-1.2,1.1-2.7-0.1-2.9-1.4c-1.4-5.7-3.2-11.4-5.9-16.6
		c-1.8,0.3-3.9,1.8-5.5,0.2c-1.8-2.1-1.2-5.1-1.8-7.7c-1.1-4.8-0.3-10.4-3.7-14.4c-1.6-1.9-4.5-1.3-6.3-2.9
		c-1.6-1.8-0.8-4.4,0.2-6.2c2.3-4.2,3.6-9.2,2.5-14c-0.8-4.3-3.3-8.2-3.5-12.6c-0.3-3.1,0.6-6.2,1.4-9.1
		c3.6-12.2,11.6-23.2,22.3-30.1c3.5,1.5,6.9,3,10.3,4.6c-4.3,8.2-8.1,16.7-10.8,25.5c-2.5,8.2-3.7,17-2.7,25.6
		c0.8,7.1,2.6,14.1,5.1,20.8c0.7-0.1,1.6,0.1,2.1-0.6c-0.4-3.1-1.6-6.1-2-9.2c-2-10.3-1.3-21.1,1.7-31.2c2.8-9.9,7.3-19.2,11.9-28.4
		c5.4,2.5,10.7,5.2,15.8,8.1c-2.4,4.8-3.8,10.1-5.2,15.2c-5.3,20.6-6.1,42.7,0.4,63.1c2,6.2,4.2,12.3,7.4,18
		c1.1-0.1,2.2-1.1,1.5-2.3c-4.4-11.2-8.3-22.9-8.8-35c-0.5-12.6,1.5-25.1,4.5-37.2c1.5-6.2,3.8-12.2,5.8-18.3
		c8.6,5.7,16.6,12.3,24.2,19.2c-4.9,11-7.2,23.1-6.7,35.1c0.5,11.9,3.1,23.7,7,34.9c3,8.5,6.5,16.8,10.9,24.7
		c0.4-0.1,1.2-0.2,1.6-0.3c-0.3-2.5-1.6-4.7-2.5-6.9c-7.8-19.3-14.1-40.1-11.8-61.1c0.9-7.5,3.1-15,6.9-21.6
		c7.6,7.2,15.1,14.4,22.6,21.6c-1.1,2.1-1.2,4.5-1.4,6.8c-1.1,10.5,0.3,21.2,3.4,31.2c3.4,10.9,8.6,21,13.4,31.3
		c0.3,1,1.5,1.5,2.2,0.6c-0.2-2.1-1.3-4-2-5.9c-4.3-10.4-8.9-20.8-11.1-31.9c-1.8-8.9-1.9-18.4,0.7-27.2
		c7.7,7.4,15.5,14.7,23.5,21.7c-0.9,5.2,0.1,10.6,1.1,15.7c2.6,12.7,9.8,23.8,14.8,35.6c0.3-0.1,0.9-0.4,1.2-0.5
		c-2.6-9.6-8.7-17.9-11-27.6c-1.7-6.1-1.7-12.5-1.1-18.8c6.3,5.3,12.8,10.4,19.4,15.2c0.1,6.1,1.3,12.2,3.5,17.8
		c1.4,3.7,3.1,7.3,4.6,10.9c0.5,0.9,0.8,2.4,2.2,2c-0.3-3.3-2-6.1-3-9.2c-2.2-5.6-3.2-11.8-2.2-17.9c7.2,4.9,14.4,9.8,22,14.1
		c1.5,1,2.8-1.5,1.2-2.3c-7.1-5-14.2-10-21.2-15.2c5.9-1.1,12,0,17.5,2.1c2.9,1,5.7,2.4,8.6,3.4c0.8,0.3,1.6,0.2,2.3-0.5
		c-2.7-1.9-5.8-3-8.7-4.5c-4.8-2.3-10-4.3-15.4-4.6c-2.9-0.1-5.9-0.4-8.6,0.8c-9.2-6.9-18.1-14.1-26.6-21.9c7.4-1.4,15-2,22.5-1
		c10.6,1.2,20.5,5.7,31.1,7.2c1.7-0.6,0.4-2.2-0.8-2.2c-12.7-3.3-24.9-9.1-38.2-9.6c-6.3-0.2-12.8-0.3-18.8,1.7
		c-8.6-8.1-16.9-16.5-25.2-24.9c9.2-4.3,19.1-6.9,29.2-7.8c13.7-1.1,27.1,2.5,40.3,5.8c3.7,0.8,7.3,2,11.1,2.5
		c0.2-0.3,0.6-0.9,0.8-1.2c-1.7-1.5-4.1-1.8-6.1-2.4c-11.4-3.4-22.8-6.9-34.6-8.3c-15.3-2-31,0.6-45,7c-8.4-8.4-16.7-16.9-25.6-24.8
		c8-4.3,16.8-7.3,25.6-9.4c8.2-1.9,16.7-3.1,25.1-2.4c11.5,1,22.4,5.3,33.6,8.1c3.1,0.7,6.2,1.7,9.4,1.7c0.1-0.7,0.1-1.3,0.2-2
		c-4.1-1.3-8.4-2.3-12.5-3.7c-11.3-3.6-22.5-7.8-34.5-8.5c-11.1-0.7-22.3,1.3-32.9,4.4c-6.5,2-12.9,4.4-18.9,7.6
		c-7-6-14.3-11.5-22.2-16.2c8.6-5.4,17.7-10.1,27.5-12.9c9.3-2.7,19-4.7,28.7-4.6c3.1,0,6.1,0.8,9.1,1c1.2,0.2,0.9-1.3,1.2-2
		c-12.7-3.9-26.5-3-39.3,0.3c-11.7,3.2-22.9,8.1-32.8,15c-5.8-3.2-11.7-6.1-17.7-8.9c1.2-0.5,1.6-1.8,2.3-2.8
		c5.1-8.3,12.7-15.1,21.4-19.4C745.9,847.5,750.6,845.5,755.3,843.4z"/>
	<path class="st9" d="M768.1,865.9c12.8-3.3,26.5-4.2,39.3-0.3c-0.3,0.7,0,2.2-1.2,2c-3.1-0.3-6.1-1-9.1-1
		c-9.8-0.2-19.4,1.9-28.7,4.6c-9.8,2.9-18.9,7.5-27.5,12.9c-1.8-1.1-3.6-2.2-5.5-3.2C745.2,874,756.4,869,768.1,865.9z"/>
	<path class="st9" d="M708.1,906.8c2.7-8.8,6.5-17.3,10.8-25.5c1.8,0.8,3.6,1.6,5.3,2.5c-4.5,9.2-9,18.5-11.9,28.4
		c-3,10.1-3.7,20.8-1.7,31.2c0.4,3.1,1.6,6.1,2,9.2c-0.4,0.8-1.4,0.5-2.1,0.6c-2.4-6.7-4.2-13.7-5.1-20.8
		C704.4,923.8,705.6,915.1,708.1,906.8z"/>
	<path class="st9" d="M781.9,892.7c10.7-3.1,21.8-5,32.9-4.4c11.9,0.7,23.2,5,34.5,8.5c4.1,1.4,8.4,2.4,12.5,3.7
		c-0.1,0.7-0.1,1.3-0.2,2c-3.2,0-6.3-1-9.4-1.7c-11.2-2.8-22-7.1-33.6-8.1c-8.4-0.7-16.9,0.5-25.1,2.4c-8.8,2.1-17.6,5.1-25.6,9.4
		c-1.6-1.4-3.2-2.8-4.8-4.2C769,897.1,775.4,894.7,781.9,892.7z"/>
	<path class="st9" d="M734.8,907.1c1.5-5.2,2.8-10.4,5.2-15.2c1.9,1.1,3.8,2.3,5.6,3.5c-2,6.1-4.3,12.1-5.8,18.3
		c-3,12.1-5,24.7-4.5,37.2c0.5,12.2,4.4,23.8,8.8,35c0.8,1.2-0.3,2.1-1.5,2.3c-3.2-5.7-5.4-11.8-7.4-18
		C728.7,949.9,729.5,927.7,734.8,907.1z"/>
	<path class="st9" d="M769.8,914.7c1.8,1.6,3.6,3.3,5.4,5c-3.8,6.6-6,14-6.9,21.6c-2.3,21,4,41.8,11.8,61.1c0.9,2.3,2.2,4.4,2.5,6.9
		c-0.4,0.1-1.2,0.2-1.6,0.3c-4.4-7.9-7.9-16.2-10.9-24.7c-3.9-11.2-6.5-23-7-34.9C762.6,937.8,764.9,925.7,769.8,914.7z"/>
	<path class="st9" d="M793.4,929.4c14-6.4,29.7-9,45-7c11.8,1.4,23.2,5,34.6,8.3c2.1,0.7,4.4,0.9,6.1,2.4c-0.2,0.3-0.6,0.9-0.8,1.2
		c-3.8-0.4-7.4-1.6-11.1-2.5c-13.1-3.3-26.6-6.9-40.3-5.8c-10.1,0.9-20,3.5-29.2,7.8C796.3,932.3,794.8,930.8,793.4,929.4z"/>
	<path class="st9" d="M796.3,948.1c0.3-2.3,0.4-4.7,1.4-6.8c1.7,1.6,3.4,3.3,5.1,4.9c-2.6,8.8-2.5,18.2-0.7,27.2
		c2.2,11.1,6.8,21.5,11.1,31.9c0.8,1.9,1.8,3.8,2,5.9c-0.7,1-2,0.5-2.2-0.6c-4.8-10.3-10-20.4-13.4-31.3
		C796.6,969.2,795.3,958.6,796.3,948.1z"/>
	<path class="st9" d="M823,958.7c6-2,12.5-1.8,18.8-1.7c13.3,0.6,25.5,6.3,38.2,9.6c1.2,0.1,2.5,1.7,0.8,2.2
		c-10.5-1.5-20.5-6-31.1-7.2c-7.5-1-15.1-0.5-22.5,1C825.8,961.4,824.4,960,823,958.7z"/>
	<path class="st9" d="M827.6,983.6c-0.9-5.2-2-10.5-1.1-15.7c1.7,1.5,3.4,2.9,5.1,4.4c-0.7,6.3-0.6,12.7,1.1,18.8
		c2.3,9.7,8.4,18,11,27.6c-0.3,0.1-0.9,0.4-1.2,0.5C837.3,1007.4,830.1,996.4,827.6,983.6z"/>
	<path class="st9" d="M853.8,984.6c2.7-1.2,5.7-0.9,8.6-0.8c5.4,0.3,10.6,2.3,15.4,4.6c2.9,1.5,6,2.6,8.7,4.5
		c-0.7,0.6-1.5,0.8-2.3,0.5c-2.9-1-5.7-2.4-8.6-3.4c-5.5-2.1-11.6-3.2-17.5-2.1C856.7,986.7,855.2,985.7,853.8,984.6z"/>
	<path class="st9" d="M851,987.5c1.7,1.2,3.4,2.4,5.1,3.7c-1,6,0,12.2,2.2,17.9c1,3.1,2.7,5.9,3,9.2c-1.4,0.4-1.7-1.1-2.2-2
		c-1.5-3.6-3.2-7.2-4.6-10.9C852.3,999.6,851.1,993.6,851,987.5z"/>
</g>
</svg>
